<?xml version="1.0" standalone="no"?>
<!DOCTYPE svg PUBLIC "-//W3C//DTD SVG 1.1//EN" "http://www.w3.org/Graphics/SVG/1.1/DTD/svg11.dtd" >
<svg xmlns="http://www.w3.org/2000/svg" xmlns:xlink="http://www.w3.org/1999/xlink" version="1.1">
<metadata>
Created by FontForge 20201107 at Tue Dec 16 01:51:43 1997
 By 
Copyright 1997 by MGI Software
</metadata>
<defs>
<font id="EurostarBlackExtended" horiz-adv-x="1024" >
  <font-face 
    font-family="Eurostar Black Extended"
    font-weight="400"
    font-stretch="normal"
    units-per-em="2048"
    panose-1="2 11 9 0 2 2 2 6 2 4"
    ascent="1581"
    descent="-467"
    x-height="956"
    cap-height="1365"
    bbox="-440 -512 3145 1969"
    underline-thickness="221"
    underline-position="-321"
    unicode-range="U+0020-F002"
  />
<missing-glyph 
d="M128 0v1969h768v-1969h-768zM256 128h512v1713h-512v-1713z" />
    <glyph glyph-name=".notdef" 
d="M128 0v1969h768v-1969h-768zM256 128h512v1713h-512v-1713z" />
    <glyph glyph-name=".null" horiz-adv-x="0" 
 />
    <glyph glyph-name="nonmarkingreturn" horiz-adv-x="512" 
 />
    <glyph glyph-name="space" unicode=" " horiz-adv-x="512" 
 />
    <glyph glyph-name="exclam" unicode="!" horiz-adv-x="657" 
d="M530 1365l-23 -807h-357l-18 807h398zM126 0v374h397v-374h-397z" />
    <glyph glyph-name="quotedbl" unicode="&#x22;" horiz-adv-x="790" 
d="M302 816h-189l-45 549h279zM676 816h-189l-44 549h279z" />
    <glyph glyph-name="numbersign" unicode="#" horiz-adv-x="1461" 
d="M1275 603l-34 -221h-210l-61 -382h-258l65 382h-192l-62 -382h-246l62 382h-211l33 221h211l30 187h-209l33 221h209l56 354h249l-60 -354h196l57 354h252l-58 -354h208l-33 -221h-208l-30 -187h211zM842 790h-192l-29 -187h191z" />
    <glyph glyph-name="dollar" unicode="$" horiz-adv-x="1947" 
d="M880 -144v144q-309 0 -386 7q-264 24 -349 121q-76 86 -76 253q0 32 5 92h339q-2 -29 -2 -41q0 -126 142 -141q67 -7 327 -7v292l-266 3q-238 3 -331 36q-190 68 -190 348q0 299 200 369q66 23 179 29q74 4 364 4h44v110h179v-110q385 -2 507 -16q158 -18 221 -105
q57 -78 57 -242v-39h-347q-2 86 -77 110q-37 12 -151 12q-124 0 -210 1v-244l286 -7q185 -5 273 -24q168 -37 221 -140q39 -76 39 -231q0 -154 -36 -238q-48 -111 -172 -155q-100 -35 -298 -42q-57 -2 -313 -5v-144h-179zM1059 283l61 1q56 1 183 0q139 -1 179 25
q47 30 47 120q0 110 -109 131q-24 5 -172 7l-189 3v-287zM880 1087h-212q-149 0 -180 -19q-39 -24 -39 -92q0 -84 56 -110q33 -15 134 -16l241 -2v239z" />
    <glyph glyph-name="percent" unicode="%" horiz-adv-x="2224" 
d="M533 1368q262 0 336 -47q59 -38 77 -132q9 -48 9 -160q0 -114 -7 -160q-15 -100 -75 -143q-51 -36 -159 -45q-25 -2 -176 -2l-190 -1q-118 5 -175 36q-74 42 -91 146q-6 36 -6 172q0 112 9 158q19 97 92 137q54 29 167 38q40 3 189 3zM505 1200q-144 0 -177 -23
q-37 -26 -37 -157q0 -125 51 -152q28 -15 174 -15q160 0 195 30q18 16 22 34q7 32 7 99q0 92 -6 122q-9 48 -76 57q-36 5 -153 5zM1586 1365h188l-1136 -1365h-188zM1726 686q134 0 172 -3q106 -8 158 -41q65 -40 83 -135q9 -48 9 -160q0 -114 -7 -160q-15 -100 -75 -143
q-51 -36 -159 -45q-25 -2 -176 -2l-190 -1q-118 5 -175 36q-74 42 -91 146q-6 36 -6 172q0 112 9 158q19 97 92 137q54 29 167 38q40 3 189 3zM1698 518q-144 0 -177 -23q-37 -26 -37 -157q0 -124 51 -152q28 -15 174 -15q159 0 195 30q18 15 22 34q7 33 7 99q0 92 -6 122
q-9 48 -76 57q-36 5 -153 5z" />
    <glyph glyph-name="ampersand" unicode="&#x26;" horiz-adv-x="2091" 
d="M1384 733h347q-3 -230 -21 -335l306 -161l-126 -244l-284 142q-113 -106 -319 -130q-61 -7 -353 -7q-507 0 -647 51q-130 48 -174 144q-33 73 -33 232q0 153 33 219q41 83 125 109q48 15 172 18q-102 38 -140 106q-33 59 -33 174q0 239 161 288q108 33 544 33
q442 0 563 -68q69 -39 90 -148q12 -61 12 -182q0 -8 -1 -38h-355q2 24 2 40q0 95 -121 116q-25 4 -199 4q-246 0 -294 -29q-30 -18 -30 -58q0 -49 61 -86q13 -8 74 -39l640 -327q6 40 6 92q0 45 -6 84zM609 636q-28 5 -46 5q-115 0 -115 -184q0 -126 90 -153q60 -18 346 -23
q213 -4 327 2q41 2 82 16z" />
    <glyph glyph-name="quotesingle" unicode="'" horiz-adv-x="525" 
d="M357 816h-189l-45 549h279z" />
    <glyph glyph-name="parenleft" unicode="(" horiz-adv-x="897" 
d="M815 -128v-305h-125q-172 0 -259 14q-136 22 -210 140q-54 86 -64 269q-1 18 -1 280v419q0 326 19 429q29 156 157 226q88 48 358 48h125v-305q-57 3 -88 3q-179 0 -191 -122q-3 -36 -4 -268l-1 -311v-47q1 -43 1 -82v-188q0 -118 39.5 -160.5t154.5 -42.5q33 0 89 3z
" />
    <glyph glyph-name="parenright" unicode=")" horiz-adv-x="897" 
d="M82 1087v305h125q173 0 259 -14q136 -22 210 -140q54 -86 64 -269q1 -18 1 -280v-419q0 -326 -19 -429q-43 -234 -279 -264q-78 -10 -236 -10h-125v305q56 -3 88 -3q179 0 191 123q3 36 4 268l1 310v48q-1 43 -1 82v187q0 118 -38 160q-41 43 -156 43q-33 0 -89 -3z" />
    <glyph glyph-name="asterisk" unicode="*" horiz-adv-x="1365" 
d="M580 1041v324h206v-324l308 100l64 -196l-309 -100l191 -262l-167 -121l-190 263l-191 -263l-166 121l190 263l-308 100l64 196z" />
    <glyph glyph-name="plus" unicode="+" horiz-adv-x="1884" 
d="M1065 825h518v-246h-518v-478h-246v478h-519v246h519v478h246v-478z" />
    <glyph glyph-name="comma" unicode="," horiz-adv-x="654" 
d="M533 380v-363q0 -121 -4 -153q-11 -86 -54 -140q-72 -90 -284 -90h-121v215q32 -3 46 -3q130 0 130 114q0 17 -2 40h-123v380h412z" />
    <glyph glyph-name="hyphen" unicode="-" horiz-adv-x="709" 
d="M709 668v-349h-709v349h709z" />
    <glyph glyph-name="hyphen" unicode="&#x2010;" horiz-adv-x="709" 
d="M709 668v-349h-709v349h709z" />
    <glyph glyph-name="period" unicode="." horiz-adv-x="707" 
d="M557 381v-381h-407v381h407z" />
    <glyph glyph-name="slash" unicode="/" horiz-adv-x="1553" 
d="M1196 1365h289l-1465 -1781h-296z" />
    <glyph glyph-name="zero" unicode="0" horiz-adv-x="1947" 
d="M984 1375q334 0 497 -26q250 -40 307 -254q35 -132 35 -406t-30 -409q-50 -224 -283 -263q-161 -27 -507 -27q-455 0 -589 25q-220 41 -265 280q-24 128 -24 380q0 318 51 454q68 182 355 229q103 17 453 17zM971 1057q-348 0 -409 -82q-45 -61 -45 -311q0 -233 54 -287
q47 -47 192 -57q100 -7 222 -7q312 0 382 59q49 41 61 151q3 28 3 168q0 152 -12 214q-24 123 -172 140q-106 12 -276 12z" />
    <glyph glyph-name="one" unicode="1" horiz-adv-x="1947" 
d="M956 0v1047l-496 -346l-184 275l582 389h496v-1365h-398z" />
    <glyph glyph-name="two" unicode="2" horiz-adv-x="1947" 
d="M1776 276v-276h-1597v398q0 206 147 286q77 42 314 60l520 40q127 10 166 25q67 26 67 135q0 125 -107 141q-47 7 -298 7q-289 0 -349 -24q-83 -33 -83 -163v-36h-377v113q0 125 23 189q55 154 283 179q181 20 513 20q247 0 322 -4q221 -12 313 -59q145 -74 145 -364
q0 -169 -34 -247q-51 -116 -190 -160q-80 -25 -257 -37l-515 -34q-119 -8 -156 -19q-72 -22 -72 -117q0 -21 2 -53h1220z" />
    <glyph glyph-name="three" unicode="3" horiz-adv-x="1947" 
d="M557 906h-385q0 3 2 64q6 189 68 263q86 103 359 129q84 8 394 8q414 0 566 -44q117 -34 164 -126q38 -74 38 -208q0 -211 -126 -266q-55 -24 -193 -41q195 -26 254 -63q93 -58 93 -257q0 -307 -275 -350q-128 -20 -535 -20q-291 0 -339 2q-245 10 -332 56
q-154 81 -154 342q0 24 4 87h377q0 -74 7 -109q17 -85 187 -94q96 -5 246 -5q249 0 309 9q113 17 113 130q0 106 -79 129q-45 13 -180 13h-325v259h308q107 0 164 13q83 19 83 118q0 114 -130 134q-72 11 -274 11q-147 0 -263 -7q-150 -9 -150 -129q0 -20 4 -48z" />
    <glyph glyph-name="four" unicode="4" horiz-adv-x="1947" 
d="M1221 0v260h-1085v482l980 623h484v-819h221v-278h-221v-268h-379zM1221 546v506l-805 -506h805z" />
    <glyph glyph-name="five" unicode="5" horiz-adv-x="1947" 
d="M165 413h378v-15q0 -111 148 -120q127 -8 292 -9q189 -1 268 7q94 10 126 55q27 39 27 139q0 119 -69 155q-49 25 -182 23q-36 -1 -140 2q-79 2 -159 2q-153 0 -172 -3q-105 -17 -122 -94h-344l12 810h1500v-276h-1168v-308q50 109 214 133q41 6 270 6q457 0 569 -49
q107 -47 149 -152q31 -78 31 -216q0 -171 -37 -271q-70 -189 -299 -218q-166 -21 -477 -21q-510 0 -655 69q-162 77 -162 306q0 11 2 45z" />
    <glyph glyph-name="six" unicode="6" horiz-adv-x="1947" 
d="M1748 983h-377q-9 89 -164 106q-9 1 -221 1q-293 0 -364 -49q-63 -43 -63 -273q0 -25 1 -66q58 116 201 143q63 12 286 12q305 0 368 -7q256 -28 317 -149q40 -79 40 -254q0 -173 -36 -260q-41 -100 -166 -148q-120 -46 -588 -46q-317 0 -406 12q-258 35 -343 174
q-49 80 -55 280q-4 135 -4 283q0 256 30 370q47 178 316 234q130 27 424 27q280 0 381 -8q273 -23 348 -104t75 -278zM981 583q-268 0 -322 -13q-100 -24 -100 -139q0 -99 58 -130q50 -27 230 -27q306 0 404 9q143 13 143 146q0 128 -121 148q-35 6 -292 6z" />
    <glyph glyph-name="seven" unicode="7" horiz-adv-x="1947" 
d="M395 0l892 1036h-1126v329h1625v-311l-904 -1054h-487z" />
    <glyph glyph-name="eight" unicode="8" horiz-adv-x="1947" 
d="M498 695q-100 8 -138 18q-178 46 -178 292q0 231 129 302q86 48 284 58q97 5 382 5l313 -1q204 -8 308 -46q169 -62 169 -309q0 -201 -97 -262q-57 -36 -240 -59q100 -10 134 -17q78 -16 123 -52q92 -74 92 -272q0 -292 -244 -336q-122 -22 -506 -22q-416 0 -526 6
q-184 10 -270 112q-64 76 -64 232q0 184 74 256q64 63 255 95zM986 568q-307 0 -359 -16q-75 -23 -75 -136q0 -150 275 -150q602 0 804 5q-92 1 -633 1q246 0 308 16q88 23 88 129q0 118 -104 141q-45 10 -304 10zM982 1101q-253 0 -302 -9q-120 -22 -120 -127
q0 -111 115 -130q32 -5 315 -7l157 -1q113 -1 159 17q80 31 80 122q0 106 -117 127q-44 8 -287 8z" />
    <glyph glyph-name="nine" unicode="9" horiz-adv-x="1947" 
d="M167 383h382q12 -108 227 -105q195 2 229 4q34 1 -97 1l212 -1q148 5 208 38q42 23 54 83q4 19 6 104q1 56 3 138q-67 -112 -234 -123q-120 -8 -331 -8q-189 0 -247 5q-147 13 -237 60q-154 81 -154 344q0 179 44 267q58 116 213 151q138 31 495 31q350 0 414 -7
q268 -29 359 -163q69 -102 69 -476q0 -281 -20 -411q-38 -246 -290 -294q-75 -14 -203 -20q-197 -9 -367 -9q-454 0 -577 53q-160 69 -160 279q0 17 2 59zM939 1092q-206 0 -259 -13q-103 -25 -103 -144t91 -139q41 -9 313 -9q247 0 310 10q102 16 102 138q0 145 -159 151
q-150 6 -295 6z" />
    <glyph glyph-name="colon" unicode=":" horiz-adv-x="707" 
d="M557 956v-381h-407v381h407zM557 381v-381h-407v381h407z" />
    <glyph glyph-name="semicolon" unicode=";" horiz-adv-x="654" 
d="M533 956v-381h-407v381h407zM533 380v-363q0 -121 -4 -153q-11 -86 -54 -140q-72 -90 -284 -90h-121v215q32 -3 46 -3q130 0 130 114q0 17 -2 40h-123v380h412z" />
    <glyph glyph-name="less" unicode="&#x3c;" 
d="M955 1245v-243l-627 -307l627 -307v-242l-887 447v206z" />
    <glyph glyph-name="equal" unicode="=" horiz-adv-x="1884" 
d="M1583 1030v-246h-1283v246h1283zM1583 621v-246h-1283v246h1283z" />
    <glyph glyph-name="greater" unicode="&#x3e;" horiz-adv-x="1952" 
d="M533 145v244l627 306l-627 307v242l887 -446v-207z" />
    <glyph glyph-name="question" unicode="?" horiz-adv-x="1609" 
d="M490 0v342h397v-342h-397zM863 474h-347q0 187 42 247q38 54 152 84q38 10 176 31q116 18 151 33q77 34 77 116q0 92 -109 112q-76 14 -258 14t-244 -24q-76 -29 -76 -155q0 -14 1 -42h-350q0 132 11 204q32 209 254 248q153 27 455 27q380 0 509 -61q93 -44 127 -137
q25 -68 25 -192q0 -252 -109 -322q-50 -32 -142 -51q-130 -27 -226 -39q-119 -15 -119 -87v-6z" />
    <glyph glyph-name="at" unicode="@" horiz-adv-x="2262" 
d="M1905 230l232 -44q-28 -113 -102 -169q-55 -42 -191 -51t-342 -7q-356 3 -341 3l-417 -2q-318 -2 -439 32q-166 46 -178 295q-4 90 -4 386q0 182 6 368q2 62 11 127q21 152 136 194q93 34 469 38q-203 -2 468 -2q433 0 616 -15q196 -16 256 -119q44 -75 53 -249
q2 -37 2 -257q0 -210 -11 -272q-26 -147 -148 -169q-95 -17 -234 -17q-170 0 -217 18q-93 36 -101 173q-30 -101 -120 -145q-77 -38 -296 -38t-324 75q-57 41 -75 132q-9 47 -9 157q0 195 41 263q53 90 227 112q71 9 236 9q253 0 320 -132v124h227v-431q0 -132 117 -132
q105 0 116 109q8 78 8 256l-1 193q-15 110 -158 151q-105 30 -291 24q-395 -12 -246 -12q65 0 9 1q-60 1 -229 3q-501 5 -557 -46q-38 -35 -44 -210l-11 -329q-2 -47 -2 -90q0 -271 51.5 -325.5t374.5 -62.5q-73 2 386 3l380 1q31 0 80 1h34l53 -1q156 -3 179 79zM1145 902
q-173 0 -219 -24q-76 -39 -76 -187q0 -97 13 -130q23 -57 99 -75q43 -10 132 -10q183 0 244 20q88 29 88 195q0 142 -72 183q-49 28 -209 28z" />
    <glyph glyph-name="A" unicode="A" horiz-adv-x="2099" 
d="M14 0l768 1365h557l747 -1365h-454l-136 244h-881l-131 -244h-470zM765 528h587l-297 544z" />
    <glyph glyph-name="B" unicode="B" horiz-adv-x="2087" 
d="M177 0v1365h1234q218 0 314 -49q157 -80 157 -311q0 -180 -88 -251q-52 -42 -180 -62q162 -16 225 -61q97 -69 97 -257q0 -242 -157 -326q-89 -48 -312 -48h-1290zM583 821h698q101 0 135 17q54 27 54 101q0 88 -73 112q-31 10 -127 10h-687v-240zM583 304h744
q95 0 126 11q66 23 66 111q0 91 -70 116q-28 10 -133 10h-733v-248z" />
    <glyph glyph-name="C" unicode="C" horiz-adv-x="2038" 
d="M1486 514h402v-62q0 -191 -45 -279q-58 -115 -224 -154q-82 -19 -243 -25q-110 -4 -436 -4q-267 0 -407 18q-266 34 -335 236q-48 140 -48 470q0 256 30 358q54 183 231 250q140 53 564 53q536 0 655 -36q142 -43 197 -155q43 -88 43 -250v-47h-397q-5 68 -21 96
q-31 54 -180 64q-11 1 -199 1q-298 0 -352 -10q-144 -27 -156 -192q-4 -56 -4 -178q0 -226 57 -284q46 -47 179 -59q45 -4 194 -4q351 0 414 27q79 34 81 166z" />
    <glyph glyph-name="D" unicode="D" horiz-adv-x="2156" 
d="M177 0v1365h1181q179 0 305 -22q190 -33 272 -181q70 -126 70 -480q0 -223 -11 -299q-47 -323 -335 -371q-72 -12 -247 -12h-1235zM593 325h697q117 0 169 16q92 28 117 141q11 49 11 197q0 202 -45 266q-57 81 -245 81h-704v-701z" />
    <glyph glyph-name="E" unicode="E" horiz-adv-x="1834" 
d="M177 1365h1513v-310h-1103v-233h1041v-270h-1041v-242h1117v-310h-1527v1365z" />
    <glyph glyph-name="F" unicode="F" horiz-adv-x="1730" 
d="M177 0v1365h1450v-310h-1036v-270h983v-310h-983v-475h-414z" />
    <glyph glyph-name="G" unicode="G" horiz-adv-x="2078" 
d="M1927 904h-407q-6 148 -169 151h-108l-146 2q-66 1 -162 -1l-132 -2q-112 0 -161 -33q-60 -40 -69 -146q-6 -71 -6 -222q0 -189 31 -248q48 -92 237 -99q27 -1 322 -1q170 0 208 4q85 9 121.5 44.5t36.5 119.5q0 13 -1 41h-526v255h931v-189q0 -229 -21 -328
q-53 -251 -382 -260q-74 -2 -521 -2q-292 0 -422 10q-311 24 -389 245q-42 119 -42 419q0 334 50 463q62 160 251 209q150 39 620 39q365 0 494 -12q289 -27 343 -240q19 -75 19 -219z" />
    <glyph glyph-name="H" unicode="H" horiz-adv-x="2132" 
d="M177 0v1365h416v-504h945v504h416v-1365h-416v524h-945v-524h-416z" />
    <glyph glyph-name="I" unicode="I" horiz-adv-x="771" 
d="M177 0v1365h416v-1365h-416z" />
    <glyph glyph-name="J" unicode="J" horiz-adv-x="1652" 
d="M69 579h395v-43q0 -92 8 -121q20 -74 128 -94q43 -8 173 -8q174 0 231 38q48 32 52 132q2 50 2 96v786h416v-704q0 -189 -7 -281q-27 -355 -446 -387q-52 -4 -296 -4q-208 0 -281 8q-197 22 -287 117q-94 99 -90 295l2 88v82z" />
    <glyph glyph-name="K" unicode="K" horiz-adv-x="2051" 
d="M177 0v1365h416v-509h218l564 509h571l-784 -674l861 -691h-604l-617 524h-209v-524h-416z" />
    <glyph glyph-name="L" unicode="L" horiz-adv-x="1575" 
d="M177 0v1365h416v-1028h940v-337h-1356z" />
    <glyph glyph-name="M" unicode="M" horiz-adv-x="2664" 
d="M177 0v1365h660l498 -906l496 906h655v-1365h-406l20 1054l-605 -1054h-332l-596 1054l11 -1054h-401z" />
    <glyph glyph-name="N" unicode="N" horiz-adv-x="2226" 
d="M177 0v1365h661l828 -1039l-11 1039h393v-1365h-667l-816 1028l12 -1028h-400z" />
    <glyph glyph-name="O" unicode="O" horiz-adv-x="2165" 
d="M1023 1379q521 0 637 -21q261 -47 324 -269q23 -81 28 -219q3 -80 3 -197q0 -258 -32 -379q-71 -269 -414 -296q-152 -12 -496 -12q-297 0 -361 3q-243 11 -352 63q-153 72 -193 289q-17 92 -17 346q0 172 3 219q8 124 41 213q79 213 395 245q149 15 434 15zM1081 1046
q-331 0 -408 -32q-72 -30 -93 -142q-9 -48 -9 -180q0 -173 21 -246q31 -108 198 -120q97 -7 235 -7q372 0 453 26q91 29 115 151q9 46 9 205q0 122 -6 164q-17 118 -96 153q-46 21 -193 27q-24 1 -226 1z" />
    <glyph glyph-name="P" unicode="P" horiz-adv-x="1945" 
d="M177 0v1365h1046q169 0 212 -3q126 -9 205 -48q115 -57 158 -192q30 -94 30 -256q0 -364 -154 -463q-70 -45 -191 -58q-83 -9 -224 -9h-668v-336h-414zM591 668h604q115 0 159 26q60 35 60 139q0 124 -48 164q-42 35 -171 35h-604v-364z" />
    <glyph glyph-name="Q" unicode="Q" horiz-adv-x="2176" 
d="M1998 370l178 -102l-147 -279l-160 118q-82 -70 -226 -99q-110 -22 -575 -22q-272 0 -463 11q-314 18 -401 219q-39 89 -49 216q-5 62 -5 222q0 188 3 237q8 137 43 231q79 213 395 243q147 14 352 14h123q321 0 495 -11q201 -13 305 -95q114 -90 139 -283
q10 -77 10 -293q0 -217 -17 -327zM1600 603q2 66 2 105q0 159 -13 203q-29 98 -141 119q-80 15 -410 15q-302 0 -187 3q-111 -3 -173 -36q-79 -42 -98 -142q-9 -48 -9 -183q0 -175 15 -224q32 -107 156 -131q41 -8 161 -11q76 -2 281 -2q220 0 303 17l-453 251l165 276z" />
    <glyph glyph-name="R" unicode="R" horiz-adv-x="2062" 
d="M177 0v1365h1179q204 0 293 -23q162 -42 214 -176q36 -93 36 -246q0 -246 -116 -328q-62 -44 -265 -73q24 -2 68 -4q146 -7 195 -38q99 -62 99 -261v-216h-421v170q0 154 -109 170q-34 5 -120 5h-639v-345h-414zM591 679h650q129 0 170 17q70 29 70 137q0 130 -47 166
q-40 31 -178 31h-665v-351z" />
    <glyph glyph-name="S" unicode="S" horiz-adv-x="1999" 
d="M155 435h408q2 -59 10 -82q14 -40 57 -54q35 -12 112 -14l161 -5q36 -1 306 4q109 2 153 17q82 28 82 111q0 103 -120 119q-30 4 -210 4h-376q-278 0 -376 30q-124 38 -174 144q-38 81 -38 230q0 238 111 328q92 76 345 99q100 9 398 9q426 0 535 -24q145 -32 205 -121
q55 -81 55 -234v-47h-405q-1 106 -112 129q-24 5 -199 5q-245 0 -377 -9q-72 -5 -103 -23q-44 -26 -44 -90q0 -86 88 -109q38 -10 168 -10h387q39 0 204 -6q192 -7 271 -40q179 -75 179 -372q0 -275 -150 -357q-141 -77 -727 -77q-447 0 -586 29q-135 28 -191 119
q-48 78 -48 225q0 16 1 72z" />
    <glyph glyph-name="T" unicode="T" horiz-adv-x="1742" 
d="M663 0v1028h-608v337h1632v-337h-608v-1028h-416z" />
    <glyph glyph-name="U" unicode="U" horiz-adv-x="2094" 
d="M172 1365h416v-673q0 -17 -1 -35v-16q0 -121 9 -169q24 -128 184 -148q71 -9 222 -9q224 0 314 7q141 11 173 106q21 62 20 193l-1 118v626h416v-715q0 -253 -23 -351q-47 -200 -270 -273q-107 -35 -299 -40q83 2 -302 2q-316 0 -441 12q-334 32 -393 297
q-24 108 -24 334v734z" />
    <glyph glyph-name="V" unicode="V" horiz-adv-x="2066" 
d="M755 0l-728 1365h458l539 -1031l551 1031h463l-756 -1365h-527z" />
    <glyph glyph-name="W" unicode="W" horiz-adv-x="2958" 
d="M56 1365h422l397 -1040l353 1040h502l341 -1040l409 1040h424l-566 -1365h-557l-303 982l-319 -982h-552z" />
    <glyph glyph-name="X" unicode="X" horiz-adv-x="2156" 
d="M55 0l679 681l-645 684h549l439 -488l445 488h536l-643 -677l687 -688h-566l-459 491l-461 -491h-561z" />
    <glyph glyph-name="Y" unicode="Y" horiz-adv-x="2023" 
d="M808 0v473l-781 892h531l461 -565l457 565h520l-770 -892v-473h-418z" />
    <glyph glyph-name="Z" unicode="Z" horiz-adv-x="1889" 
d="M116 0v314l1031 741h-1005v310h1614v-313l-1045 -742h1062v-310h-1657z" />
    <glyph glyph-name="bracketleft" unicode="[" horiz-adv-x="868" 
d="M841 -157v-273h-664v1809h664v-273h-314v-1263h314z" />
    <glyph glyph-name="backslash" unicode="\" horiz-adv-x="1553" 
d="M357 1365l1472 -1781h-296l-1465 1781h289z" />
    <glyph glyph-name="bracketright" unicode="]" horiz-adv-x="868" 
d="M27 -430v273h314v1263h-314v273h664v-1809h-664z" />
    <glyph glyph-name="asciicircum" unicode="^" 
d="M274 696h-257l334 677h322l335 -677h-258l-238 481z" />
    <glyph glyph-name="underscore" unicode="_" 
d="M0 -101h1024v-221h-1024v221z" />
    <glyph glyph-name="grave" unicode="`" 
d="M268 1470l458 -244l-51 -137l-487 164z" />
    <glyph glyph-name="a" unicode="a" horiz-adv-x="1552" 
d="M1050 0v169q-40 -134 -178 -172q-69 -19 -265 -19q-316 0 -403 62q-95 68 -95 248q0 183 95 250q75 53 240 66q51 4 254 4q143 0 195 -11q115 -24 147 -109v106q0 67 -11 95q-21 53 -131 65q-24 3 -157 3q-139 0 -146 -1q-89 -12 -95 -77h-351q5 89 34 140q32 56 107 96
q87 46 255 58q69 5 264 5q342 0 457 -62q104 -56 131 -197q5 -26 5 -125v-594h-352zM735 412q-131 0 -169 -7q-109 -20 -109 -100q0 -84 108 -102q36 -6 202 -6q136 0 184 9q95 18 95 101t-125 101q-27 4 -186 4z" />
    <glyph glyph-name="b" unicode="b" horiz-adv-x="1633" 
d="M150 0v1365h352v-585q58 130 192 172q83 26 270 26q288 0 409 -72q99 -59 131 -191q19 -78 19 -239q0 -160 -8 -211q-19 -122 -90 -183q-120 -104 -449 -104q-217 0 -285 21q-129 40 -189 191v-190h-352zM853 714q-196 0 -250 -25q-93 -43 -93 -209q0 -126 32 -169
q37 -50 149 -63q36 -4 169 -4q189 0 244 40q66 48 66 188q0 84 -9 121q-21 88 -125 111q-44 10 -183 10z" />
    <glyph glyph-name="c" unicode="c" horiz-adv-x="1550" 
d="M1430 591h-358q-9 94 -120 118q-41 9 -188 9q-161 0 -215 -28q-86 -44 -86 -212q0 -165 88 -213q48 -26 228 -26q143 0 187 11q104 26 114 123h361q-3 -265 -207 -346q-120 -48 -441 -48q-418 0 -547 97q-137 103 -137 395q0 326 155 425q128 82 512 82q225 0 326 -16
q210 -34 276 -143q49 -81 52 -228z" />
    <glyph glyph-name="d" unicode="d" horiz-adv-x="1627" 
d="M1136 0v209q-47 -144 -167 -195q-86 -37 -265 -37q-340 0 -465 80q-88 56 -115 181q-15 69 -15 223q0 233 44 331q84 186 517 186q289 0 380 -87q31 -30 75 -100v574h352v-1365h-341zM782 717q-207 0 -256 -42q-61 -52 -61 -203q0 -170 80 -206q58 -26 243 -26
q231 0 284 41q58 45 58 192q0 174 -73 214q-55 30 -275 30z" />
    <glyph glyph-name="e" unicode="e" horiz-adv-x="1509" 
d="M1053 304h346q-4 -234 -212 -289q-122 -32 -397 -32q-256 0 -390 25q-178 33 -246 179q-46 99 -46 278q0 227 68 340q84 139 294 158q109 10 295 10q243 0 309 -10q184 -28 261 -140q64 -93 64 -309v-105h-933v-45q0 -146 150 -162q65 -7 185 -7q117 0 155 9
q90 21 97 100zM1056 597q-1 120 -98 150q-42 13 -204 13q-194 0 -245 -45q-42 -37 -42 -102v-16h589z" />
    <glyph glyph-name="f" unicode="f" horiz-adv-x="1053" 
d="M286 0v716h-190v240h190v31q0 157 38 233q56 112 196 147q80 20 257 20q76 0 194 -8v-231q-94 3 -137 3q-105 0 -146 -30q-50 -36 -50 -137v-28h354v-240h-354v-716h-352z" />
    <glyph glyph-name="g" unicode="g" horiz-adv-x="1628" 
d="M147 -105h356q10 -78 119 -98q38 -7 172 -7q234 0 299 67q41 42 41 205v142q-51 -113 -131 -155q-94 -49 -326 -49q-317 0 -440 90q-83 61 -111 186q-16 72 -16 222q0 181 29 263q50 143 234 190q102 26 319 26q218 0 287 -28q115 -47 155 -220v228h344v-862
q0 -182 -18 -257q-46 -193 -252 -251q-145 -41 -461 -41q-176 0 -265 13q-331 48 -335 336zM772 714q-188 0 -238 -28q-70 -39 -70 -188q0 -171 73 -207q57 -28 241 -28q240 0 290 41q56 46 56 188q0 111 -28 154q-34 53 -151 65q-30 3 -173 3z" />
    <glyph glyph-name="h" unicode="h" horiz-adv-x="1599" 
d="M150 0v1365h352v-586q52 129 162 171q74 28 244 28q326 0 447 -132q94 -103 94 -335v-511h-352v461q0 93 -5 120q-15 81 -101 109q-52 17 -159 17q-181 0 -244 -38q-86 -52 -86 -216v-453h-352z" />
    <glyph glyph-name="i" unicode="i" horiz-adv-x="653" 
d="M150 0v956h352v-956h-352zM150 1109v256h352v-256h-352z" />
    <glyph glyph-name="j" unicode="j" horiz-adv-x="736" 
d="M233 956h352l-2 -938q0 -44 -8 -183q-33 -197 -366 -197q-53 0 -141 8v229q36 -7 57 -7q73 0 96 53q12 28 12 100v935zM233 1109v256h352v-256h-352z" />
    <glyph glyph-name="k" unicode="k" horiz-adv-x="1466" 
d="M150 0v1365h352v-729h83l334 320h472l-495 -446l569 -510h-476l-391 387h-96v-387h-352z" />
    <glyph glyph-name="l" unicode="l" horiz-adv-x="653" 
d="M150 0v1365h352v-1365h-352z" />
    <glyph glyph-name="m" unicode="m" horiz-adv-x="2431" 
d="M150 0v956h342v-195q42 132 157 181q84 36 247 36q366 0 449 -221q36 134 161 185q89 36 253 36q260 0 382 -92q139 -105 139 -357v-529h-352v502q0 124 -69 167q-53 33 -188 33q-156 0 -214 -45q-66 -52 -66 -202v-455h-352v484q0 141 -60 184q-48 35 -198 35
q-143 0 -203 -38q-76 -48 -76 -181v-484h-352z" />
    <glyph glyph-name="n" unicode="n" horiz-adv-x="1599" 
d="M150 0v956h343v-222q35 132 117 183q98 61 325 61q310 0 427 -136q87 -101 87 -334v-508h-352v493q0 138 -81 181q-55 29 -212 29q-166 0 -230 -51q-72 -58 -72 -220v-432h-352z" />
    <glyph glyph-name="o" unicode="o" horiz-adv-x="1583" 
d="M786 978q257 0 412 -27q183 -32 240 -159q35 -78 35 -288q0 -255 -39 -342q-59 -132 -297 -169q-98 -15 -367 -15q-427 0 -549 94q-80 62 -102 189q-10 57 -10 222q0 240 51 330q65 114 287 149q102 16 339 16zM784 718q-192 0 -248 -32q-73 -42 -73 -205q0 -84 7 -117
q14 -65 62 -94q55 -33 259 -33q214 0 267 37q61 43 61 199q0 92 -9 127q-23 90 -135 111q-36 7 -191 7z" />
    <glyph glyph-name="p" unicode="p" horiz-adv-x="1632" 
d="M502 956v-202q41 158 167 201q68 23 280 23q442 0 529 -182q44 -92 44 -312q0 -145 -14 -218q-24 -127 -98 -188q-120 -100 -470 -100q-173 0 -262 27q-145 44 -176 172v-593h-352v1372h352zM857 717q-243 1 -292 -35q-61 -45 -61 -204q0 -82 8 -116q15 -63 66 -88
q60 -29 271 -29q209 0 254 37q57 46 57 209q0 149 -73 194q-51 31 -230 32z" />
    <glyph glyph-name="q" unicode="q" horiz-adv-x="1617" 
d="M1114 -416v580q-46 -106 -151 -151q-82 -35 -288 -35q-211 0 -314 27q-179 48 -226 192q-26 79 -26 269q0 160 15 234q27 133 116 193q126 85 473 85q261 0 342 -76q36 -34 75 -158v212h336v-1372h-352zM789 717q-196 0 -249 -32q-75 -45 -75 -219q0 -162 87 -203
q51 -25 242 -25q230 0 282 50q41 39 41 201q0 159 -87 202q-53 26 -241 26z" />
    <glyph glyph-name="r" unicode="r" horiz-adv-x="1302" 
d="M150 0v956h338v-213q23 65 36 89q24 45 60 73q94 73 297 73q229 0 316 -106q64 -78 64 -276q0 -16 -2 -62h-330q1 10 1 15q0 88 -52 123q-42 29 -135 29q-149 0 -205 -84q-36 -54 -36 -177v-440h-352z" />
    <glyph glyph-name="s" unicode="s" horiz-adv-x="1535" 
d="M102 295h372q3 -79 134 -97q22 -3 190 -3q123 0 161 6q114 18 114 83q0 67 -102 75q-51 4 -184 4h-175q-228 0 -337 36q-163 54 -163 255q0 234 180 285q138 39 473 39q396 0 509 -61q102 -55 109 -225h-370q-8 53 -107 65q-24 3 -139 3q-127 0 -166 -5
q-125 -16 -125 -76q0 -55 97 -68q15 -2 135 -2h248q241 0 330 -38q147 -63 147 -264q0 -138 -62 -208.5t-199.5 -95.5t-453.5 -25q-192 0 -246 4q-156 11 -238 54q-129 67 -132 259z" />
    <glyph glyph-name="t" unicode="t" horiz-adv-x="1313" 
d="M927 410h270v-76q0 -202 -70 -267q-95 -89 -355 -89q-156 0 -217 8q-129 17 -199 74q-93 76 -93 267v389h-181v240h181v226h358v-226h576v-240h-576v-314q0 -96 27 -131q32 -41 125 -41q89 0 120 25q34 29 34 116v39z" />
    <glyph glyph-name="u" unicode="u" horiz-adv-x="1599" 
d="M1449 956v-956h-343v222q-35 -132 -117 -183q-98 -61 -325 -61q-311 0 -427 136q-87 102 -87 334v508h352v-493q0 -140 83 -182q55 -28 215 -28q164 0 227 52q70 58 70 219v432h352z" />
    <glyph glyph-name="v" unicode="v" horiz-adv-x="1503" 
d="M520 0l-472 956h399l306 -690l306 690h396l-470 -956h-465z" />
    <glyph glyph-name="w" unicode="w" horiz-adv-x="2204" 
d="M420 0l-352 956h375l222 -713l266 713h337l261 -713l231 713h376l-355 -956h-491l-191 568l-196 -568h-483z" />
    <glyph glyph-name="x" unicode="x" horiz-adv-x="1507" 
d="M61 0l420 501l-393 455h465l195 -267l205 267h453l-385 -439l424 -517h-450l-247 343l-247 -343h-440z" />
    <glyph glyph-name="y" unicode="y" horiz-adv-x="1470" 
d="M479 0l-431 956h391l280 -708l308 708h395l-547 -1155q-33 -70 -50 -98q-34 -57 -72 -83q-76 -53 -274 -53q-69 0 -148 7v238q26 -1 44 -1q97 0 135 16q50 21 86 98l35 75h-152z" />
    <glyph glyph-name="z" unicode="z" horiz-adv-x="1352" 
d="M96 0v240l630 478h-589v238h1100v-267l-615 -452h635v-237h-1161z" />
    <glyph glyph-name="braceleft" unicode="{" horiz-adv-x="890" 
d="M475 474q76 -48 103 -110q23 -52 23 -149v-227q0 -107 38 -126q30 -15 119 -15h40v-273l-231 -4q-168 -3 -243 68q-73 68 -73 238v301q0 153 -112 176v263q112 23 112 166v301q0 223 152 275q62 21 175 21q78 0 220 -5v-273h-41q-136 0 -150 -52q-6 -22 -6 -100v-216
q0 -98 -23 -149q-26 -58 -103 -110z" />
    <glyph glyph-name="bar" unicode="|" 
d="M317 1365h391v-1706h-391v1706z" />
    <glyph glyph-name="braceright" unicode="}" horiz-adv-x="890" 
d="M416 474q-77 52 -103 110q-23 51 -23 149v216q0 68 -1 76q-7 53 -57 69q-24 7 -97 7h-42v273q142 5 223 5q133 0 203 -36q121 -62 121 -260v-301q0 -73 20 -108q25 -44 91 -58v-263q-111 -24 -111 -176v-301q0 -167 -75 -236.5t-243 -69.5q-11 0 -66 1l-163 3v273h40
q137 0 151 51q6 21 6 90v227q0 95 24 149q28 62 102 110z" />
    <glyph glyph-name="asciitilde" unicode="~" horiz-adv-x="1365" 
d="M321 1155l-136 89q4 9 15 34q45 99 86 149q78 94 204 94q69 0 215 -56q133 -51 182 -51q87 0 152 110l141 -81q-74 -154 -145 -206q-81 -60 -177 -60q-54 0 -299 90q-46 17 -84 17q-58 0 -96 -39q-24 -25 -58 -90z" />
    <glyph glyph-name="nonbreakingspace" unicode="&#xa0;" horiz-adv-x="512" 
 />
    <glyph glyph-name="exclamdown" unicode="&#xa1;" horiz-adv-x="657" 
d="M126 -410l23 808h357l18 -808h-398zM530 956v-374h-397v374h397z" />
    <glyph glyph-name="cent" unicode="&#xa2;" horiz-adv-x="1947" 
d="M1069 1234q218 -10 301 -30q180 -44 231 -171q26 -64 27 -184h-357q-7 75 -70 103q-41 18 -132 21v-474q101 5 139 22q63 28 70 110h362q-2 -282 -217 -350q-111 -35 -354 -43v-159h-186v160q-215 8 -303 32q-168 46 -228 181q-45 101 -45 277q0 254 89 365
q70 88 225 118q77 15 262 22v146h186v-146zM883 499v475q-167 -11 -202 -99q-20 -50 -20 -139q0 -166 88 -214q35 -19 134 -23z" />
    <glyph glyph-name="sterling" unicode="&#xa3;" horiz-adv-x="1947" 
d="M98 745h208q1 202 9 284q25 254 245 305q134 31 521 31q473 0 593 -62q153 -79 153 -324q0 -19 -2 -78h-382v27q0 114 -122 130q-84 11 -221 11q-299 0 -353 -37q-38 -26 -47 -98q-4 -32 -4 -189h567v-230h-557q-6 -105 -54 -150q-38 -35 -150 -68h1346v-297h-1689v297
q12 -1 20 -1q69 0 104 66q28 52 28 127q0 8 -1 26h-212v230z" />
    <glyph glyph-name="currency" unicode="&#xa4;" horiz-adv-x="1527" 
d="M127 190l209 209q-90 132 -90 282q0 148 92 282l-213 212l141 141l212 -211q138 90 287 90t282 -88l210 208l140 -140l-208 -208q94 -146 94 -286q0 -145 -90 -280l210 -210l-139 -142l-210 210q-137 -93 -291 -93q-140 0 -287 92l-209 -208zM768 962q-120 2 -202.5 -80
t-82.5 -202q0 -117 82 -199t199 -82q119 0 200.5 81.5t81.5 200.5q0 118 -80 199t-198 82z" />
    <glyph glyph-name="yen" unicode="&#xa5;" horiz-adv-x="1947" 
d="M1550 983h174v-232h-346l-141 -191h466v-232h-529v-328h-390v328h-541v232h477l-144 191h-353v232h178l-288 382h470l395 -561l389 561h467z" />
    <glyph glyph-name="brokenbar" unicode="&#xa6;" 
d="M317 1365h391v-740h-391v740zM317 314h391v-655h-391v655z" />
    <glyph glyph-name="section" unicode="&#xa7;" horiz-adv-x="1947" 
d="M1709 995h-367v12q0 99 -124 108q-55 4 -255 4q-163 0 -235 -5q-90 -6 -119 -51q-16 -25 -16 -74q0 -69 62 -94q21 -8 122 -20l660 -76q247 -28 303 -157q21 -48 21 -130q0 -216 -141 -281q92 -31 120 -106q18 -48 18 -168q0 -168 -44 -248q-55 -101 -203 -133
q-58 -13 -216 -21q-208 -11 -446 -11q-399 0 -514 48q-83 35 -117 92q-31 53 -31 147v116h371q-1 -27 -1 -35q0 -67 66 -87q52 -16 341 -16q216 0 309 8q115 10 115 138q0 103 -126 119l-797 103q-61 8 -85 15q-40 12 -76 40q-98 76 -98 254q0 93 34 143t120 88
q-87 36 -118 104q-24 52 -24 160q0 171 51 252q68 108 281 130q154 16 415 16q-126 0 204 5q318 5 428 -75q73 -53 95 -139q10 -39 17 -175zM1340 299q75 89 75 160q0 63 -50 93q-35 21 -124 32l-592 73q-88 -85 -88 -155q0 -72 78 -103q37 -15 140 -28z" />
    <glyph glyph-name="dieresis" unicode="&#xa8;" 
d="M437 1346v-213h-285v213h285zM872 1346v-213h-285v213h285z" />
    <glyph glyph-name="copyright" unicode="&#xa9;" horiz-adv-x="1952" 
d="M976 1379q317 3 485 -16q285 -32 326 -325q15 -107 15 -367q0 -307 -33 -426q-40 -144 -175 -207q-69 -32 -151 -39q-152 -13 -467 -13q-333 0 -471 14q-157 16 -255 119q-79 83 -96 283q-4 46 -4 308q0 298 37 423q41 139 184 199q69 29 148 35q120 9 457 12zM971 1227
q-234 0 -274 -2q-192 -10 -265 -52q-88 -51 -109 -224q-6 -49 -6 -263q0 -271 26 -364q42 -150 239 -171q122 -13 428 -13l263 1q177 10 253 58q85 54 105 234q5 45 5 269q0 246 -24 344q-38 156 -248 172q-143 11 -393 11zM1245 599h251q-1 -33 0 -43q0 -160 -81 -215
q-61 -41 -234 -49h-251q-284 0 -368 51q-73 44 -95 164q-10 55 -10 198q0 169 31 238q47 104 201 126q84 12 261 12q314 0 388 -21q147 -42 147 -234v-32h-248q-4 76 -82 89q-23 1 -143 1h-145q-107 -6 -133 -41q-21 -29 -21 -166q0 -136 55 -167q34 -19 191 -19
q204 0 241 14q45 17 45 94z" />
    <glyph glyph-name="ordfeminine" unicode="&#xaa;" horiz-adv-x="1033" 
d="M689 546v71q-44 -61 -126 -77q-38 -7 -153 -7q-170 0 -225 19q-108 37 -108 170q0 145 133 182q53 15 258 15q89 0 113 -4q57 -9 101 -47v36q0 72 -62 86q-13 3 -125 3h-89q-59 -7 -62 -46h-242q7 108 97 152q78 38 341 38q171 0 231 -14q133 -32 156 -144q4 -19 4 -75
v-358h-242zM486 789q-81 0 -100 -3q-69 -11 -69 -53q0 -44 64 -54q19 -3 126 -3q93 0 107 2q72 10 72 57q0 44 -85 53q-9 1 -115 1z" />
    <glyph glyph-name="guillemotleft" unicode="&#xab;" horiz-adv-x="1297" 
d="M616 861l-213 -362l213 -355l-252 -139l-296 494l296 506zM1174 861l-213 -362l213 -355l-252 -139l-296 494l296 506z" />
    <glyph glyph-name="logicalnot" unicode="&#xac;" horiz-adv-x="1952" 
d="M1173 0v317h-641v229h887v-546h-246z" />
    <glyph glyph-name="sfthyphen" unicode="&#xad;" horiz-adv-x="709" 
d="M709 668v-349h-709v349h709z" />
    <glyph glyph-name="registered" unicode="&#xae;" horiz-adv-x="1952" 
d="M976 1379q317 3 485 -16q285 -32 326 -325q15 -107 15 -367q0 -307 -33 -426q-40 -144 -175 -207q-69 -32 -151 -39q-152 -13 -467 -13q-333 0 -471 14q-157 16 -255 119q-79 83 -96 283q-4 46 -4 308q0 298 37 423q41 139 184 199q69 29 148 35q120 9 457 12zM971 1227
q-234 0 -274 -2q-192 -10 -265 -52q-88 -51 -109 -224q-6 -49 -6 -263q0 -271 26 -364q42 -150 239 -171q122 -13 428 -13l263 1q177 10 253 58q85 54 105 234q5 45 5 269q0 246 -24 344q-38 156 -248 172q-143 11 -393 11zM469 300v779h703q120 0 171 -12q156 -37 156 -246
q0 -99 -34 -148q-37 -52 -131 -73q88 -8 121 -46t33 -127v-127h-262v102q0 63 -34 80q-22 11 -95 11h-370v-193h-258zM727 694h377q75 0 99 11q39 18 39 82q0 62 -35 80q-22 11 -94 11h-386v-184z" />
    <glyph glyph-name="overscore" unicode="&#xaf;" 
d="M0 1821h1024v-225h-1024v225z" />
    <glyph glyph-name="degree" unicode="&#xb0;" horiz-adv-x="869" 
d="M435 1365q129 1 220 -87.5t91 -217.5q0 -130 -90.5 -218.5t-220.5 -88.5q-131 0 -221 89.5t-90 220.5q0 128 91.5 214.5t219.5 87.5zM435 1212q-63 0 -109 -43.5t-46 -106.5q0 -66 44.5 -111t110.5 -45q65 0 110 44.5t45 108.5q0 65 -45 108.5t-110 44.5z" />
    <glyph glyph-name="plusminus" unicode="&#xb1;" horiz-adv-x="1884" 
d="M1065 956h518v-246h-518v-410h-246v410h-519v246h519v409h246v-409zM1583 246v-246h-1283v246h1283z" />
    <glyph glyph-name="twosuperior" unicode="&#xb2;" horiz-adv-x="1240" 
d="M1122 722v-176h-999v241q0 127 94 176q49 25 197 36l321 23q77 6 96 13q42 17 42 75q0 68 -60 76q-29 4 -182 4q-179 0 -214 -13q-48 -18 -48 -90q0 -6 1 -28h-247v73q0 77 14 114q36 95 225 117q43 5 273 5q316 0 395 -38q94 -45 94 -221q0 -159 -74 -214
q-59 -44 -230 -55l-318 -20q-72 -5 -94 -11q-40 -12 -40 -63q0 -9 1 -24h753z" />
    <glyph glyph-name="threesuperior" unicode="&#xb3;" horiz-adv-x="1240" 
d="M370 1081h-252q1 14 2 45q3 103 41 154q41 55 140 72q91 16 328 16q261 0 355 -26q130 -36 130 -203q0 -90 -32 -128t-120 -54q97 -15 133 -53.5t36 -135.5q0 -173 -143 -207q-76 -18 -365 -18q-346 0 -415 35q-99 50 -99 209q0 17 2 57h246v-17q0 -80 51 -95
q38 -11 213 -11q167 0 152 -2q103 11 103 77q0 58 -44 70q-29 8 -110 8h-207v166h197q70 0 100 7q46 11 46 64q0 61 -75 72q-49 7 -169 7q-137 0 -146 -1q-101 -12 -101 -74q0 -15 3 -34z" />
    <glyph glyph-name="acute" unicode="&#xb4;" 
d="M756 1470l80 -217l-487 -164l-51 137z" />
    <glyph glyph-name="mu" unicode="&#xb5;" horiz-adv-x="1599" 
d="M150 -425v1381h352v-419q0 -169 52 -224q68 -72 246 -72q177 0 245 72q52 55 52 224v419h352v-956h-352v196q-37 -210 -298 -210q-260 0 -297 210v-621h-352z" />
    <glyph glyph-name="mu" unicode="&#x3bc;" horiz-adv-x="1599" 
d="M150 -425v1381h352v-419q0 -169 52 -224q68 -72 246 -72q177 0 245 72q52 55 52 224v419h352v-956h-352v196q-37 -210 -298 -210q-260 0 -297 210v-621h-352z" />
    <glyph glyph-name="paragraph" unicode="&#xb6;" horiz-adv-x="1952" 
d="M747 340h-42q-303 0 -412 54q-177 88 -177 468q0 229 63 334q88 146 312 162q97 7 174 7h1171v-273h-195v-1529h-355v1529h-184v-1529h-355v777z" />
    <glyph glyph-name="middot" unicode="&#xb7;" horiz-adv-x="707" 
d="M557 669v-381h-407v381h407z" />
    <glyph glyph-name="cedilla" unicode="&#xb8;" 
d="M471 -75l225 -128l-231 -272l-137 75z" />
    <glyph glyph-name="onesuperior" unicode="&#xb9;" horiz-adv-x="1233" 
d="M601 546v612l-301 -201l-121 174l366 234h315v-819h-259z" />
    <glyph glyph-name="ordmasculine" unicode="&#xba;" horiz-adv-x="1054" 
d="M524 1137q274 0 364 -49q61 -33 79 -102q10 -39 10 -135q0 -111 -9 -152q-18 -83 -83 -118q-87 -47 -372 -47q-277 0 -360 57q-54 37 -69 112q-7 35 -7 137q0 125 23 176q33 74 137 99q90 22 287 22zM521 970q-116 0 -146 -13q-54 -24 -54 -120q0 -100 55 -124
q27 -12 151 -12q125 0 150 10q56 23 56 121q0 104 -55 127q-26 11 -157 11z" />
    <glyph glyph-name="guillemotright" unicode="&#xbb;" horiz-adv-x="1297" 
d="M681 861l253 144l295 -506l-295 -494l-252 139l212 355zM123 861l252 144l296 -506l-296 -494l-252 139l213 355z" />
    <glyph glyph-name="onequarter" unicode="&#xbc;" horiz-adv-x="2935" 
d="M601 546v612l-301 -201l-121 174l366 234h315v-819h-259zM1929 1365h206l-1136 -1365h-206zM2462 0v153h-670v295l610 371h307v-484h136v-177h-136v-158h-247zM2462 335v280l-466 -280h466z" />
    <glyph glyph-name="onehalf" unicode="&#xbd;" horiz-adv-x="2935" 
d="M601 546v612l-301 -201l-121 174l366 234h315v-819h-259zM1929 1365h206l-1136 -1365h-206zM2814 176v-176h-999v241q0 127 94 176q49 25 197 36l321 23q77 6 96 13q42 17 42 75q0 69 -60 77q-30 4 -182 4q-179 0 -214 -13q-48 -18 -48 -91q0 -6 1 -28h-247v73
q0 78 14 115q36 95 225 117q43 5 273 5q317 0 395 -38q94 -46 94 -222q0 -188 -109 -234q-63 -27 -195 -35l-318 -20q-72 -5 -94 -11q-40 -12 -40 -63q0 -9 1 -24h753z" />
    <glyph glyph-name="threequarters" unicode="&#xbe;" horiz-adv-x="2942" 
d="M370 1081h-252q1 25 2 45q3 103 41 154q41 55 140 72q91 16 328 16q258 0 316 -14q169 -41 169 -215q0 -90 -32 -128t-120 -54q97 -15 133 -53.5t36 -135.5q0 -173 -143 -207q-76 -18 -365 -18q-346 0 -415 35q-99 50 -99 209q0 17 2 57h246v-17q0 -80 51 -95
q38 -11 213 -11q167 0 152 -2q103 11 103 77q0 58 -44 70q-29 8 -110 8h-207v166h197q70 0 100 7q46 11 46 64q0 61 -75 72q-49 7 -169 7q-137 0 -146 -1q-101 -12 -101 -74q0 -15 3 -34zM1935 1365h207l-1136 -1365h-206zM2469 0v153h-671v295l611 371h307v-484h136v-177
h-136v-158h-247zM2469 335v280l-466 -280h466z" />
    <glyph glyph-name="questiondown" unicode="&#xbf;" horiz-adv-x="1609" 
d="M1118 956v-342h-397v342h397zM745 481h347q0 -160 -25 -215q-37 -81 -168 -115q-37 -10 -177 -31q-116 -18 -151 -33q-76 -33 -76 -116q0 -92 109 -112q77 -14 258 -14q182 0 244 24q76 29 76 155q0 12 -1 42h350q0 -135 -11 -204q-33 -209 -254 -248q-152 -27 -456 -27
q-379 0 -508 61q-93 44 -127 137q-25 68 -25 192q0 253 109 322q47 30 142 50q120 25 226 39q124 16 119 88q0 3 -1 5z" />
    <glyph glyph-name="Agrave" unicode="&#xc0;" horiz-adv-x="2099" 
d="M14 0l768 1365h557l747 -1365h-454l-136 244h-881l-131 -244h-470zM765 528h587l-297 544zM758 1860l548 -239l-62 -149l-571 131z" />
    <glyph glyph-name="Aacute" unicode="&#xc1;" horiz-adv-x="2099" 
d="M14 0l768 1365h557l747 -1365h-454l-136 244h-881l-131 -244h-470zM765 528h587l-297 544zM1363 1860l85 -257l-571 -131l-62 149z" />
    <glyph glyph-name="Acircumflex" unicode="&#xc2;" horiz-adv-x="2099" 
d="M14 0l768 1365h557l747 -1365h-454l-136 244h-881l-131 -244h-470zM765 528h587l-297 544zM1050 1849l488 -247l-73 -130l-415 114l-417 -114l-72 130z" />
    <glyph glyph-name="Atilde" unicode="&#xc3;" horiz-adv-x="2099" 
d="M14 0l768 1365h557l747 -1365h-454l-136 244h-881l-131 -244h-470zM765 528h587l-297 544zM1362 1811l183 -71q-96 -248 -282 -248q-68 0 -204 52.5t-192 52.5q-77 0 -115 -98l-183 71q34 80 72 133q82 114 208 114q87 0 322 -86q46 -17 87 -17q72 0 104 97z" />
    <glyph glyph-name="Adieresis" unicode="&#xc4;" horiz-adv-x="2099" 
d="M14 0l768 1365h557l747 -1365h-454l-136 244h-881l-131 -244h-470zM765 528h587l-297 544zM951 1757v-239h-357v239h357zM1506 1757v-239h-357v239h357z" />
    <glyph glyph-name="Aring" unicode="&#xc5;" horiz-adv-x="2099" 
d="M14 0l768 1365h557l747 -1365h-454l-136 244h-881l-131 -244h-470zM765 528h587l-297 544zM1060 1862q296 0 296 -189q0 -207 -318 -207q-117 0 -194 40q-99 51 -99 157q0 199 315 199zM1049 1742q-137 0 -137 -82q0 -74 132 -74q145 0 145 78t-140 78z" />
    <glyph glyph-name="AE" unicode="&#xc6;" horiz-adv-x="3027" 
d="M14 0l921 1365h1963v-310h-1105v-233h1035v-270h-1035v-242h1105v-310h-1491v247h-745l-162 -247h-486zM841 523h566v532h-216z" />
    <glyph glyph-name="Ccedilla" unicode="&#xc7;" horiz-adv-x="2038" 
d="M1486 514h402v-62q0 -191 -45 -279q-58 -115 -224 -154q-82 -19 -243 -25q-110 -4 -436 -4q-267 0 -407 18q-266 34 -335 236q-48 140 -48 470q0 256 30 358q54 183 231 250q140 53 564 53q536 0 655 -36q142 -43 197 -155q43 -88 43 -250v-47h-397q-5 68 -21 96
q-31 54 -180 64q-11 1 -199 1q-298 0 -352 -10q-144 -27 -156 -192q-4 -56 -4 -178q0 -226 57 -284q46 -47 179 -59q45 -4 194 -4q351 0 414 27q79 34 81 166zM982 -75l245 -135l-224 -278l-164 74z" />
    <glyph glyph-name="Egrave" unicode="&#xc8;" horiz-adv-x="1834" 
d="M177 1365h1513v-310h-1103v-233h1041v-270h-1041v-242h1117v-310h-1527v1365zM627 1860l548 -239l-62 -149l-571 131z" />
    <glyph glyph-name="Eacute" unicode="&#xc9;" horiz-adv-x="1834" 
d="M177 1365h1513v-310h-1103v-233h1041v-270h-1041v-242h1117v-310h-1527v1365zM1254 1860l85 -257l-571 -131l-62 149z" />
    <glyph glyph-name="Ecircumflex" unicode="&#xca;" horiz-adv-x="1834" 
d="M177 1365h1513v-310h-1103v-233h1041v-270h-1041v-242h1117v-310h-1527v1365zM934 1849l488 -247l-73 -130l-415 114l-417 -114l-72 130z" />
    <glyph glyph-name="Edieresis" unicode="&#xcb;" horiz-adv-x="1834" 
d="M177 1365h1513v-310h-1103v-233h1041v-270h-1041v-242h1117v-310h-1527v1365zM834 1757v-239h-357v239h357zM1390 1757v-239h-357v239h357z" />
    <glyph glyph-name="Igrave" unicode="&#xcc;" horiz-adv-x="771" 
d="M177 0v1365h416v-1365h-416zM127 1860l493 -239l-48 -149l-530 131z" />
    <glyph glyph-name="Iacute" unicode="&#xcd;" horiz-adv-x="771" 
d="M177 0v1365h416v-1365h-416zM644 1860l85 -257l-516 -131l-62 149z" />
    <glyph glyph-name="Icircumflex" unicode="&#xce;" horiz-adv-x="771" 
d="M177 0v1365h416v-1365h-416zM386 1849l399 -247l-72 -130l-327 114l-328 -114l-72 130z" />
    <glyph glyph-name="Idieresis" unicode="&#xcf;" horiz-adv-x="771" 
d="M177 0v1365h416v-1365h-416zM338 1757v-239h-316v239h316zM749 1757v-239h-316v239h316z" />
    <glyph glyph-name="Eth" unicode="&#xd0;" horiz-adv-x="2156" 
d="M178 812v553h1181q180 0 306 -22q190 -33 272 -181q70 -126 70 -480q0 -218 -12 -299q-48 -324 -334 -371q-72 -12 -247 -12h-1236v566h-164v246h164zM594 812h383v-246h-383v-241h697q118 0 170 16q92 28 117 141q11 49 11 197q0 202 -45 266q-57 81 -245 81h-705v-214z
" />
    <glyph glyph-name="Ntilde" unicode="&#xd1;" horiz-adv-x="2226" 
d="M177 0v1365h661l828 -1039l-11 1039h393v-1365h-667l-816 1028l12 -1028h-400zM1438 1811l183 -71q-96 -248 -282 -248q-68 0 -204 52.5t-192 52.5q-77 0 -115 -98l-183 71q34 80 72 133q82 114 208 114q87 0 322 -86q46 -17 87 -17q72 0 104 97z" />
    <glyph glyph-name="Ograve" unicode="&#xd2;" horiz-adv-x="2165" 
d="M1023 1379q521 0 637 -21q261 -47 324 -269q23 -81 28 -219q3 -80 3 -197q0 -258 -32 -379q-71 -269 -414 -296q-152 -12 -496 -12q-297 0 -361 3q-243 11 -352 63q-153 72 -193 289q-17 92 -17 346q0 172 3 219q8 124 41 213q79 213 395 245q149 15 434 15zM1081 1046
q-331 0 -408 -32q-72 -30 -93 -142q-9 -48 -9 -180q0 -173 21 -246q31 -108 198 -120q97 -7 235 -7q372 0 453 26q91 29 115 151q9 46 9 205q0 122 -6 164q-17 118 -96 153q-46 21 -193 27q-24 1 -226 1zM769 1860l548 -239l-62 -149l-571 131z" />
    <glyph glyph-name="Oacute" unicode="&#xd3;" horiz-adv-x="2165" 
d="M1023 1379q521 0 637 -21q261 -47 324 -269q23 -81 28 -219q3 -80 3 -197q0 -258 -32 -379q-71 -269 -414 -296q-152 -12 -496 -12q-297 0 -361 3q-243 11 -352 63q-153 72 -193 289q-17 92 -17 346q0 172 3 219q8 124 41 213q79 213 395 245q149 15 434 15zM1081 1046
q-331 0 -408 -32q-72 -30 -93 -142q-9 -48 -9 -180q0 -173 21 -246q31 -108 198 -120q97 -7 235 -7q372 0 453 26q91 29 115 151q9 46 9 205q0 122 -6 164q-17 118 -96 153q-46 21 -193 27q-24 1 -226 1zM1396 1860l85 -257l-571 -131l-62 149z" />
    <glyph glyph-name="Ocircumflex" unicode="&#xd4;" horiz-adv-x="2165" 
d="M1023 1379q521 0 637 -21q261 -47 324 -269q23 -81 28 -219q3 -80 3 -197q0 -258 -32 -379q-71 -269 -414 -296q-152 -12 -496 -12q-297 0 -361 3q-243 11 -352 63q-153 72 -193 289q-17 92 -17 346q0 172 3 219q8 124 41 213q79 213 395 245q149 15 434 15zM1081 1046
q-331 0 -408 -32q-72 -30 -93 -142q-9 -48 -9 -180q0 -173 21 -246q31 -108 198 -120q97 -7 235 -7q372 0 453 26q91 29 115 151q9 46 9 205q0 122 -6 164q-17 118 -96 153q-46 21 -193 27q-24 1 -226 1zM1083 1849l488 -247l-73 -130l-415 114l-417 -114l-72 130z" />
    <glyph glyph-name="Otilde" unicode="&#xd5;" horiz-adv-x="2165" 
d="M1023 1379q521 0 637 -21q261 -47 324 -269q23 -81 28 -219q3 -80 3 -197q0 -258 -32 -379q-71 -269 -414 -296q-152 -12 -496 -12q-297 0 -361 3q-243 11 -352 63q-153 72 -193 289q-17 92 -17 346q0 172 3 219q8 124 41 213q79 213 395 245q149 15 434 15zM1081 1046
q-331 0 -408 -32q-72 -30 -93 -142q-9 -48 -9 -180q0 -173 21 -246q31 -108 198 -120q97 -7 235 -7q372 0 453 26q91 29 115 151q9 46 9 205q0 122 -6 164q-17 118 -96 153q-46 21 -193 27q-24 1 -226 1zM1394 1811l183 -71q-96 -248 -282 -248q-68 0 -204 52.5t-192 52.5
q-77 0 -115 -98l-183 71q34 80 72 133q82 114 208 114q87 0 322 -86q46 -17 87 -17q72 0 104 97z" />
    <glyph glyph-name="Odieresis" unicode="&#xd6;" horiz-adv-x="2165" 
d="M1023 1379q521 0 637 -21q261 -47 324 -269q23 -81 28 -219q3 -80 3 -197q0 -258 -32 -379q-71 -269 -414 -296q-152 -12 -496 -12q-297 0 -361 3q-243 11 -352 63q-153 72 -193 289q-17 92 -17 346q0 172 3 219q8 124 41 213q79 213 395 245q149 15 434 15zM1081 1046
q-331 0 -408 -32q-72 -30 -93 -142q-9 -48 -9 -180q0 -173 21 -246q31 -108 198 -120q97 -7 235 -7q372 0 453 26q91 29 115 151q9 46 9 205q0 122 -6 164q-17 118 -96 153q-46 21 -193 27q-24 1 -226 1zM983 1757v-239h-357v239h357zM1539 1757v-239h-357v239h357z" />
    <glyph glyph-name="multiply" unicode="&#xd7;" horiz-adv-x="1884" 
d="M942 876l367 367l173 -174l-367 -367l338 -338l-173 -174l-338 338l-367 -366l-174 173l367 367l-338 338l174 174z" />
    <glyph glyph-name="Oslash" unicode="&#xd8;" horiz-adv-x="2165" 
d="M180 280q-30 127 -30 378q0 196 2 233q7 132 42 227q78 213 395 245q149 15 419 15q426 0 447 2q-14 1 -95 2q394 -5 521 -120l232 134v-236l-130 -75q31 -110 31 -413q0 -256 -32 -377q-71 -268 -414 -295q-164 -13 -484 -13q-500 0 -628 33q-108 28 -172 83l-233 -134
v236zM579 511l894 518q-141 16 -414 16q-323 0 -195 3q-118 -3 -184 -37q-85 -45 -102 -149q-7 -43 -7 -190q0 -73 8 -161zM1595 861l-897 -518q79 -23 343 -23q252 0 348 8q132 11 174 84q38 66 38 299q0 80 -6 150z" />
    <glyph glyph-name="Ugrave" unicode="&#xd9;" horiz-adv-x="2094" 
d="M172 1365h416v-673q0 -17 -1 -35v-16q0 -121 9 -169q24 -128 184 -148q71 -9 222 -9q224 0 314 7q141 11 173 106q21 62 20 193l-1 118v626h416v-715q0 -253 -23 -351q-47 -200 -270 -273q-107 -35 -299 -40q83 2 -302 2q-316 0 -441 12q-334 32 -393 297
q-24 108 -24 334v734zM734 1860l548 -239l-62 -149l-571 131z" />
    <glyph glyph-name="Uacute" unicode="&#xda;" horiz-adv-x="2094" 
d="M172 1365h416v-673q0 -17 -1 -35v-16q0 -121 9 -169q24 -128 184 -148q71 -9 222 -9q224 0 314 7q141 11 173 106q21 62 20 193l-1 118v626h416v-715q0 -253 -23 -351q-47 -200 -270 -273q-107 -35 -299 -40q83 2 -302 2q-316 0 -441 12q-334 32 -393 297
q-24 108 -24 334v734zM1361 1860l85 -257l-571 -131l-62 149z" />
    <glyph glyph-name="Ucircumflex" unicode="&#xdb;" horiz-adv-x="2094" 
d="M172 1365h416v-673q0 -17 -1 -35v-16q0 -121 9 -169q24 -128 184 -148q71 -9 222 -9q224 0 314 7q141 11 173 106q21 62 20 193l-1 118v626h416v-715q0 -253 -23 -351q-47 -200 -270 -273q-107 -35 -299 -40q83 2 -302 2q-316 0 -441 12q-334 32 -393 297
q-24 108 -24 334v734zM1048 1849l488 -247l-73 -130l-415 114l-417 -114l-72 130z" />
    <glyph glyph-name="Udieresis" unicode="&#xdc;" horiz-adv-x="2094" 
d="M172 1365h416v-673q0 -17 -1 -35v-16q0 -121 9 -169q24 -128 184 -148q71 -9 222 -9q224 0 314 7q141 11 173 106q21 62 20 193l-1 118v626h416v-715q0 -253 -23 -351q-47 -200 -270 -273q-107 -35 -299 -40q83 2 -302 2q-316 0 -441 12q-334 32 -393 297
q-24 108 -24 334v734zM948 1757v-239h-357v239h357zM1504 1757v-239h-357v239h357z" />
    <glyph glyph-name="Yacute" unicode="&#xdd;" horiz-adv-x="2023" 
d="M808 0v473l-781 892h531l461 -565l457 565h520l-770 -892v-473h-418zM1325 1860l85 -257l-571 -131l-62 149z" />
    <glyph glyph-name="Thorn" unicode="&#xde;" horiz-adv-x="1921" 
d="M177 0v1365h416v-177h662q197 0 288 -23q161 -41 218 -168q43 -96 43 -273q0 -171 -35 -267q-50 -137 -183 -178q-113 -35 -371 -35h-622v-244h-416zM593 576h577q168 0 200 58q15 27 15 82q0 96 -67 124q-39 16 -155 16h-570v-280z" />
    <glyph glyph-name="germandbls" unicode="&#xdf;" horiz-adv-x="1631" 
d="M660 706v239h167q64 0 130 4q118 7 118 89q0 104 -251 104q-219 0 -279 -54q-43 -39 -43 -198v-890h-352v955q0 140 36 221q45 101 157 155q123 59 517 59q312 0 424 -58q144 -75 144 -255q0 -162 -95 -218q-37 -22 -184 -39q106 -7 132 -12q74 -13 121 -50
q119 -92 119 -320q0 -242 -131 -353q-121 -102 -367 -102q-306 0 -393 155q-38 68 -39 232h296q7 -123 123 -123q89 0 120 56q27 48 27 179q0 140 -56 185q-48 39 -194 39h-247z" />
    <glyph glyph-name="agrave" unicode="&#xe0;" horiz-adv-x="1552" 
d="M1050 0v169q-40 -134 -178 -172q-69 -19 -265 -19q-316 0 -403 62q-95 68 -95 248q0 183 95 250q75 53 240 66q51 4 254 4q143 0 195 -11q115 -24 147 -109v106q0 67 -11 95q-21 53 -131 65q-24 3 -157 3q-139 0 -146 -1q-89 -12 -95 -77h-351q5 89 34 140q32 56 107 96
q87 46 255 58q69 5 264 5q342 0 457 -62q104 -56 131 -197q5 -26 5 -125v-594h-352zM735 412q-131 0 -169 -7q-109 -20 -109 -100q0 -84 108 -102q36 -6 202 -6q136 0 184 9q95 18 95 101t-125 101q-27 4 -186 4zM512 1470l458 -244l-51 -137l-487 164z" />
    <glyph glyph-name="aacute" unicode="&#xe1;" horiz-adv-x="1552" 
d="M1050 0v169q-40 -134 -178 -172q-69 -19 -265 -19q-316 0 -403 62q-95 68 -95 248q0 183 95 250q75 53 240 66q51 4 254 4q143 0 195 -11q115 -24 147 -109v106q0 67 -11 95q-21 53 -131 65q-24 3 -157 3q-139 0 -146 -1q-89 -12 -95 -77h-351q5 89 34 140q32 56 107 96
q87 46 255 58q69 5 264 5q342 0 457 -62q104 -56 131 -197q5 -26 5 -125v-594h-352zM735 412q-131 0 -169 -7q-109 -20 -109 -100q0 -84 108 -102q36 -6 202 -6q136 0 184 9q95 18 95 101t-125 101q-27 4 -186 4zM1033 1470l80 -217l-487 -164l-51 137z" />
    <glyph glyph-name="acircumflex" unicode="&#xe2;" horiz-adv-x="1552" 
d="M1050 0v169q-40 -134 -178 -172q-69 -19 -265 -19q-316 0 -403 62q-95 68 -95 248q0 183 95 250q75 53 240 66q51 4 254 4q143 0 195 -11q115 -24 147 -109v106q0 67 -11 95q-21 53 -131 65q-24 3 -157 3q-139 0 -146 -1q-89 -12 -95 -77h-351q5 89 34 140q32 56 107 96
q87 46 255 58q69 5 264 5q342 0 457 -62q104 -56 131 -197q5 -26 5 -125v-594h-352zM735 412q-131 0 -169 -7q-109 -20 -109 -100q0 -84 108 -102q36 -6 202 -6q136 0 184 9q95 18 95 101t-125 101q-27 4 -186 4zM776 1458l411 -247l-56 -122l-355 143l-355 -143l-56 122z
" />
    <glyph glyph-name="atilde" unicode="&#xe3;" horiz-adv-x="1552" 
d="M1050 0v169q-40 -134 -178 -172q-69 -19 -265 -19q-316 0 -403 62q-95 68 -95 248q0 183 95 250q75 53 240 66q51 4 254 4q143 0 195 -11q115 -24 147 -109v106q0 67 -11 95q-21 53 -131 65q-24 3 -157 3q-139 0 -146 -1q-89 -12 -95 -77h-351q5 89 34 140q32 56 107 96
q87 46 255 58q69 5 264 5q342 0 457 -62q104 -56 131 -197q5 -26 5 -125v-594h-352zM735 412q-131 0 -169 -7q-109 -20 -109 -100q0 -84 108 -102q36 -6 202 -6q136 0 184 9q95 18 95 101t-125 101q-27 4 -186 4zM1037 1416l166 -69q-57 -146 -143 -195q-55 -31 -111 -31
q-53 0 -163 44.5t-158 44.5q-75 0 -100 -93l-166 68q52 112 95 156q63 65 163 65q64 0 167 -47q87 -40 136 -40q90 0 114 97z" />
    <glyph glyph-name="adieresis" unicode="&#xe4;" horiz-adv-x="1552" 
d="M1050 0v169q-40 -134 -178 -172q-69 -19 -265 -19q-316 0 -403 62q-95 68 -95 248q0 183 95 250q75 53 240 66q51 4 254 4q143 0 195 -11q115 -24 147 -109v106q0 67 -11 95q-21 53 -131 65q-24 3 -157 3q-139 0 -146 -1q-89 -12 -95 -77h-351q5 89 34 140q32 56 107 96
q87 46 255 58q69 5 264 5q342 0 457 -62q104 -56 131 -197q5 -26 5 -125v-594h-352zM735 412q-131 0 -169 -7q-109 -20 -109 -100q0 -84 108 -102q36 -6 202 -6q136 0 184 9q95 18 95 101t-125 101q-27 4 -186 4zM701 1346v-213h-285v213h285zM1136 1346v-213h-285v213h285z
" />
    <glyph glyph-name="aring" unicode="&#xe5;" horiz-adv-x="1552" 
d="M1050 0v169q-40 -134 -178 -172q-69 -19 -265 -19q-316 0 -403 62q-95 68 -95 248q0 183 95 250q75 53 240 66q51 4 254 4q143 0 195 -11q115 -24 147 -109v106q0 67 -11 95q-21 53 -131 65q-24 3 -157 3q-139 0 -146 -1q-89 -12 -95 -77h-351q5 89 34 140q32 56 107 96
q87 46 255 58q69 5 264 5q342 0 457 -62q104 -56 131 -197q5 -26 5 -125v-594h-352zM735 412q-131 0 -169 -7q-109 -20 -109 -100q0 -84 108 -102q36 -6 202 -6q136 0 184 9q95 18 95 101t-125 101q-27 4 -186 4zM785 1452q273 0 273 -182q0 -199 -293 -199q-109 0 -180 39
q-90 49 -90 150q0 192 290 192zM774 1339q-134 0 -134 -79q0 -76 131 -76q142 0 142 76q0 79 -139 79z" />
    <glyph glyph-name="ae" unicode="&#xe6;" horiz-adv-x="2450" 
d="M1974 307h353q-6 -272 -311 -315q-100 -14 -290 -14q-332 0 -423 37q-105 43 -127 137q-35 -116 -186 -154q-83 -21 -257 -21q-300 0 -405 20q-125 24 -183 128q-36 65 -36 169q0 221 148 275q93 34 328 34q208 0 293 -5q120 -7 172 -108v85q0 77 -15 112q-22 52 -86 63
q-58 10 -241 10q-106 0 -122 -3q-71 -13 -79 -74h-358q5 246 277 282q98 13 344 13q193 0 270 -17q168 -37 188 -161q21 99 132 144q83 34 346 34q282 0 394 -33q227 -67 227 -426v-114h-939v-27q0 -156 138 -176q63 -9 207 -9q153 0 192 24q48 29 49 90zM1974 600
q1 14 1 21q0 98 -105 125q-46 12 -185 12q-191 0 -240 -32q-61 -40 -60 -126h589zM823 409h-65q-194 0 -239 -18q-62 -25 -62 -86q0 -79 88 -98q47 -10 191 -10q194 0 240 16q70 24 70 90q0 79 -87 97q-43 9 -136 9z" />
    <glyph glyph-name="ccedilla" unicode="&#xe7;" horiz-adv-x="1550" 
d="M1430 591h-358q-9 94 -120 118q-41 9 -188 9q-161 0 -215 -28q-86 -44 -86 -212q0 -165 88 -213q48 -26 228 -26q143 0 187 11q104 26 114 123h361q-3 -265 -207 -346q-120 -48 -441 -48q-418 0 -547 97q-137 103 -137 395q0 326 155 425q128 82 512 82q225 0 326 -16
q210 -34 276 -143q49 -81 52 -228zM748 -75l225 -128l-231 -272l-137 75z" />
    <glyph glyph-name="egrave" unicode="&#xe8;" horiz-adv-x="1509" 
d="M1053 304h346q-4 -234 -212 -289q-122 -32 -397 -32q-256 0 -390 25q-178 33 -246 179q-46 99 -46 278q0 227 68 340q84 139 294 158q109 10 295 10q243 0 309 -10q184 -28 261 -140q64 -93 64 -309v-105h-933v-45q0 -146 150 -162q65 -7 185 -7q117 0 155 9
q90 21 97 100zM1056 597q-1 120 -98 150q-42 13 -204 13q-194 0 -245 -45q-42 -37 -42 -102v-16h589zM504 1470l458 -244l-51 -137l-487 164z" />
    <glyph glyph-name="eacute" unicode="&#xe9;" horiz-adv-x="1509" 
d="M1053 304h346q-4 -234 -212 -289q-122 -32 -397 -32q-256 0 -390 25q-178 33 -246 179q-46 99 -46 278q0 227 68 340q84 139 294 158q109 10 295 10q243 0 309 -10q184 -28 261 -140q64 -93 64 -309v-105h-933v-45q0 -146 150 -162q65 -7 185 -7q117 0 155 9
q90 21 97 100zM1056 597q-1 120 -98 150q-42 13 -204 13q-194 0 -245 -45q-42 -37 -42 -102v-16h589zM1025 1470l80 -217l-487 -164l-51 137z" />
    <glyph glyph-name="ecircumflex" unicode="&#xea;" horiz-adv-x="1509" 
d="M1053 304h346q-4 -234 -212 -289q-122 -32 -397 -32q-256 0 -390 25q-178 33 -246 179q-46 99 -46 278q0 227 68 340q84 139 294 158q109 10 295 10q243 0 309 -10q184 -28 261 -140q64 -93 64 -309v-105h-933v-45q0 -146 150 -162q65 -7 185 -7q117 0 155 9
q90 21 97 100zM1056 597q-1 120 -98 150q-42 13 -204 13q-194 0 -245 -45q-42 -37 -42 -102v-16h589zM768 1458l411 -247l-56 -122l-355 143l-355 -143l-56 122z" />
    <glyph glyph-name="edieresis" unicode="&#xeb;" horiz-adv-x="1509" 
d="M1053 304h346q-4 -234 -212 -289q-122 -32 -397 -32q-256 0 -390 25q-178 33 -246 179q-46 99 -46 278q0 227 68 340q84 139 294 158q109 10 295 10q243 0 309 -10q184 -28 261 -140q64 -93 64 -309v-105h-933v-45q0 -146 150 -162q65 -7 185 -7q117 0 155 9
q90 21 97 100zM1056 597q-1 120 -98 150q-42 13 -204 13q-194 0 -245 -45q-42 -37 -42 -102v-16h589zM693 1346v-213h-285v213h285zM1128 1346v-213h-285v213h285z" />
    <glyph glyph-name="igrave" unicode="&#xec;" horiz-adv-x="653" 
d="M150 0v956h352v-956h-352zM110 1470l417 -244l-51 -137l-446 164z" />
    <glyph glyph-name="iacute" unicode="&#xed;" horiz-adv-x="653" 
d="M150 0v956h352v-956h-352zM543 1470l80 -217l-446 -164l-51 137z" />
    <glyph glyph-name="icircumflex" unicode="&#xee;" horiz-adv-x="653" 
d="M150 0v956h352v-956h-352zM326 1458l329 -247l-56 -122l-273 143l-273 -143l-56 122z" />
    <glyph glyph-name="idieresis" unicode="&#xef;" horiz-adv-x="653" 
d="M151 0v956h352v-956h-352zM279 1346v-213h-257v213h257zM631 1346v-213h-257v213h257z" />
    <glyph glyph-name="eth" unicode="&#xf0;" horiz-adv-x="1583" 
d="M985 935l-139 169l-132 -52l-105 131l128 53l-167 198h352l85 -89l133 53l115 -131l-128 -54l75 -82q181 -198 231 -320q40 -98 40 -317q0 -245 -39 -332q-59 -132 -298 -169q-98 -15 -367 -15q-425 0 -548 94q-80 61 -102 186q-10 57 -10 220q0 243 51 335
q90 162 528 162q153 0 297 -40zM784 719q-193 0 -248 -32q-73 -43 -73 -206q0 -84 7 -117q14 -65 62 -94q55 -33 259 -33q215 0 268 37q60 42 60 199q0 90 -9 127q-17 69 -75 95q-54 24 -251 24z" />
    <glyph glyph-name="ntilde" unicode="&#xf1;" horiz-adv-x="1599" 
d="M150 0v956h343v-222q35 132 117 183q98 61 325 61q310 0 427 -136q87 -101 87 -334v-508h-352v493q0 138 -81 181q-55 29 -212 29q-166 0 -230 -51q-72 -58 -72 -220v-432h-352zM1040 1416l166 -69q-57 -146 -143 -195q-55 -31 -111 -31q-53 0 -163 44.5t-158 44.5
q-75 0 -100 -93l-166 68q52 112 95 156q63 65 163 65q64 0 167 -47q87 -40 136 -40q90 0 114 97z" />
    <glyph glyph-name="ograve" unicode="&#xf2;" horiz-adv-x="1583" 
d="M786 978q257 0 412 -27q183 -32 240 -159q35 -78 35 -288q0 -255 -39 -342q-59 -132 -297 -169q-98 -15 -367 -15q-427 0 -549 94q-80 62 -102 189q-10 57 -10 222q0 240 51 330q65 114 287 149q102 16 339 16zM784 718q-192 0 -248 -32q-73 -42 -73 -205q0 -84 7 -117
q14 -65 62 -94q55 -33 259 -33q214 0 267 37q61 43 61 199q0 92 -9 127q-23 90 -135 111q-36 7 -191 7zM541 1470l458 -244l-51 -137l-487 164z" />
    <glyph glyph-name="oacute" unicode="&#xf3;" horiz-adv-x="1583" 
d="M786 978q257 0 412 -27q183 -32 240 -159q35 -78 35 -288q0 -255 -39 -342q-59 -132 -297 -169q-98 -15 -367 -15q-427 0 -549 94q-80 62 -102 189q-10 57 -10 222q0 240 51 330q65 114 287 149q102 16 339 16zM784 718q-192 0 -248 -32q-73 -42 -73 -205q0 -84 7 -117
q14 -65 62 -94q55 -33 259 -33q214 0 267 37q61 43 61 199q0 92 -9 127q-23 90 -135 111q-36 7 -191 7zM1049 1470l80 -217l-487 -164l-51 137z" />
    <glyph glyph-name="ocircumflex" unicode="&#xf4;" horiz-adv-x="1583" 
d="M786 978q257 0 412 -27q183 -32 240 -159q35 -78 35 -288q0 -255 -39 -342q-59 -132 -297 -169q-98 -15 -367 -15q-427 0 -549 94q-80 62 -102 189q-10 57 -10 222q0 240 51 330q65 114 287 149q102 16 339 16zM784 718q-192 0 -248 -32q-73 -42 -73 -205q0 -84 7 -117
q14 -65 62 -94q55 -33 259 -33q214 0 267 37q61 43 61 199q0 92 -9 127q-23 90 -135 111q-36 7 -191 7zM791 1458l411 -247l-56 -122l-355 143l-355 -143l-56 122z" />
    <glyph glyph-name="otilde" unicode="&#xf5;" horiz-adv-x="1583" 
d="M786 978q257 0 412 -27q183 -32 240 -159q35 -78 35 -288q0 -255 -39 -342q-59 -132 -297 -169q-98 -15 -367 -15q-427 0 -549 94q-80 62 -102 189q-10 57 -10 222q0 240 51 330q65 114 287 149q102 16 339 16zM784 718q-192 0 -248 -32q-73 -42 -73 -205q0 -84 7 -117
q14 -65 62 -94q55 -33 259 -33q214 0 267 37q61 43 61 199q0 92 -9 127q-23 90 -135 111q-36 7 -191 7zM1052 1416l166 -69q-57 -146 -143 -195q-55 -31 -111 -31q-53 0 -163 44.5t-158 44.5q-75 0 -100 -93l-166 68q52 112 95 156q63 65 163 65q64 0 167 -47
q87 -40 136 -40q90 0 114 97z" />
    <glyph glyph-name="odieresis" unicode="&#xf6;" horiz-adv-x="1583" 
d="M786 978q257 0 412 -27q183 -32 240 -159q35 -78 35 -288q0 -255 -39 -342q-59 -132 -297 -169q-98 -15 -367 -15q-427 0 -549 94q-80 62 -102 189q-10 57 -10 222q0 240 51 330q65 114 287 149q102 16 339 16zM784 718q-192 0 -248 -32q-73 -42 -73 -205q0 -84 7 -117
q14 -65 62 -94q55 -33 259 -33q214 0 267 37q61 43 61 199q0 92 -9 127q-23 90 -135 111q-36 7 -191 7zM716 1346v-213h-285v213h285zM1151 1346v-213h-285v213h285z" />
    <glyph glyph-name="divide" unicode="&#xf7;" horiz-adv-x="1884" 
d="M1583 825v-246h-1283v246h1283zM1118 1277v-330h-353v330h353zM1118 458v-330h-353v330h353z" />
    <glyph glyph-name="oslash" unicode="&#xf8;" horiz-adv-x="1583" 
d="M134 188q-24 113 -24 264q0 197 15 267q41 192 268 234q135 25 388 25q261 0 413 -27q87 -15 171 -69l182 106v-169l-96 -57q23 -94 23 -243q0 -191 -12 -255q-27 -145 -132 -209q-83 -50 -246 -64q-149 -13 -320 -13q-261 0 -403 29q-73 15 -139 62l-186 -106v170z
M469 378l561 316q-66 24 -252 24q-224 0 -274 -53q-42 -45 -42 -239q0 -19 7 -48zM1113 574l-559 -316q77 -21 224 -21q225 0 277 37q65 46 65 205q0 54 -7 95z" />
    <glyph glyph-name="ugrave" unicode="&#xf9;" horiz-adv-x="1599" 
d="M1449 956v-956h-343v222q-35 -132 -117 -183q-98 -61 -325 -61q-311 0 -427 136q-87 102 -87 334v508h352v-493q0 -140 83 -182q55 -28 215 -28q164 0 227 52q70 58 70 219v432h352zM542 1470l458 -244l-51 -137l-487 164z" />
    <glyph glyph-name="uacute" unicode="&#xfa;" horiz-adv-x="1599" 
d="M1449 956v-956h-343v222q-35 -132 -117 -183q-98 -61 -325 -61q-311 0 -427 136q-87 102 -87 334v508h352v-493q0 -140 83 -182q55 -28 215 -28q164 0 227 52q70 58 70 219v432h352zM1057 1470l80 -217l-487 -164l-51 137z" />
    <glyph glyph-name="ucircumflex" unicode="&#xfb;" horiz-adv-x="1599" 
d="M1449 956v-956h-343v222q-35 -132 -117 -183q-98 -61 -325 -61q-311 0 -427 136q-87 102 -87 334v508h352v-493q0 -140 83 -182q55 -28 215 -28q164 0 227 52q70 58 70 219v432h352zM800 1458l411 -247l-56 -122l-355 143l-355 -143l-56 122z" />
    <glyph glyph-name="udieresis" unicode="&#xfc;" horiz-adv-x="1599" 
d="M1449 956v-956h-343v222q-35 -132 -117 -183q-98 -61 -325 -61q-311 0 -427 136q-87 102 -87 334v508h352v-493q0 -140 83 -182q55 -28 215 -28q164 0 227 52q70 58 70 219v432h352zM725 1346v-213h-285v213h285zM1160 1346v-213h-285v213h285z" />
    <glyph glyph-name="yacute" unicode="&#xfd;" horiz-adv-x="1470" 
d="M479 0l-431 956h391l280 -708l308 708h395l-547 -1155q-33 -70 -50 -98q-34 -57 -72 -83q-76 -53 -274 -53q-69 0 -148 7v238q26 -1 44 -1q97 0 135 16q50 21 86 98l35 75h-152zM986 1470l80 -217l-487 -164l-51 137z" />
    <glyph glyph-name="thorn" unicode="&#xfe;" horiz-adv-x="1632" 
d="M502 1365v-611q41 158 167 201q68 23 280 23q442 0 529 -182q44 -92 44 -312q0 -145 -14 -218q-24 -127 -98 -188q-120 -100 -470 -100q-173 0 -262 27q-145 44 -176 172v-593h-352v1781h352zM857 717q-243 1 -292 -35q-61 -45 -61 -204q0 -82 8 -116q15 -63 66 -88
q60 -29 271 -29q209 0 254 37q57 46 57 209q0 149 -73 194q-51 31 -230 32z" />
    <glyph glyph-name="ydieresis" unicode="&#xff;" horiz-adv-x="1470" 
d="M479 0l-431 956h391l280 -708l308 708h395l-547 -1155q-33 -70 -50 -98q-34 -57 -72 -83q-76 -53 -274 -53q-69 0 -148 7v238q26 -1 44 -1q97 0 135 16q50 21 86 98l35 75h-152zM660 1346v-213h-285v213h285zM1095 1346v-213h-285v213h285z" />
    <glyph glyph-name="Amacron" unicode="&#x100;" horiz-adv-x="2099" 
d="M14 0l768 1365h557l747 -1365h-454l-136 244h-881l-131 -244h-470zM765 528h587l-297 544zM1516 1753v-221h-932v221h932z" />
    <glyph glyph-name="amacron" unicode="&#x101;" horiz-adv-x="1552" 
d="M1050 0v169q-40 -134 -178 -172q-69 -19 -265 -19q-316 0 -403 62q-95 68 -95 248q0 183 95 250q75 53 240 66q51 4 254 4q143 0 195 -11q115 -24 147 -109v106q0 67 -11 95q-21 53 -131 65q-24 3 -157 3q-139 0 -146 -1q-89 -12 -95 -77h-351q5 89 34 140q32 56 107 96
q87 46 255 58q69 5 264 5q342 0 457 -62q104 -56 131 -197q5 -26 5 -125v-594h-352zM735 412q-131 0 -169 -7q-109 -20 -109 -100q0 -84 108 -102q36 -6 202 -6q136 0 184 9q95 18 95 101t-125 101q-27 4 -186 4zM1157 1340v-199h-761v199h761z" />
    <glyph glyph-name="Abreve" unicode="&#x102;" horiz-adv-x="2099" 
d="M14 0l768 1365h557l747 -1365h-454l-136 244h-881l-131 -244h-470zM765 528h587l-297 544zM1521 1830q-9 -104 -86 -187q-146 -157 -385 -157q-240 0 -385 157q-75 81 -86 187h226q23 -57 66 -84q83 -53 179 -53t179 53q43 27 66 84h226z" />
    <glyph glyph-name="abreve" unicode="&#x103;" horiz-adv-x="1552" 
d="M1050 0v169q-40 -134 -178 -172q-69 -19 -265 -19q-316 0 -403 62q-95 68 -95 248q0 183 95 250q75 53 240 66q51 4 254 4q143 0 195 -11q115 -24 147 -109v106q0 67 -11 95q-21 53 -131 65q-24 3 -157 3q-139 0 -146 -1q-89 -12 -95 -77h-351q5 89 34 140q32 56 107 96
q87 46 255 58q69 5 264 5q342 0 457 -62q104 -56 131 -197q5 -26 5 -125v-594h-352zM735 412q-131 0 -169 -7q-109 -20 -109 -100q0 -84 108 -102q36 -6 202 -6q136 0 184 9q95 18 95 101t-125 101q-27 4 -186 4zM1174 1441q-28 -204 -209 -292q-87 -42 -189 -42
q-159 0 -266 88q-111 90 -132 246h180q26 -66 48 -88q62 -63 170 -63t170 63q22 22 48 88h180z" />
    <glyph glyph-name="Aogonek" unicode="&#x104;" horiz-adv-x="2099" 
d="M2086 0q-223 -131 -223 -229q0 -89 120 -89q43 0 103 16v-186q-67 -15 -123 -15q-205 0 -285 138q-31 54 -31 110q0 154 200 255h-215l-135 244h-881l-132 -244h-470l768 1365h557zM765 528h588l-297 544z" />
    <glyph glyph-name="aogonek" unicode="&#x105;" horiz-adv-x="1552" 
d="M1402 0q-187 -112 -187 -199q0 -76 102 -76q32 0 85 14v-161q-59 -13 -107 -13q-180 0 -248 118q-26 45 -26 97q0 119 170 220h-141v169q-40 -134 -178 -172q-69 -19 -265 -19q-316 0 -403 62q-95 68 -95 248q0 183 95 250q75 53 240 66q51 4 254 4q143 0 195 -11
q115 -24 147 -109v106q0 67 -11 95q-21 53 -131 65q-24 3 -157 3q-135 0 -143 -1q-92 -12 -98 -77h-351q5 89 34 140q32 56 107 96q87 46 255 58q69 5 264 5q342 0 457 -62q104 -56 131 -197q5 -26 5 -125v-594zM735 412q-131 0 -169 -7q-109 -20 -109 -100q0 -84 108 -102
q36 -6 202 -6q136 0 184 9q95 18 95 101t-125 101q-27 4 -186 4z" />
    <glyph glyph-name="Cacute" unicode="&#x106;" horiz-adv-x="2038" 
d="M1486 514h402v-62q0 -191 -45 -279q-58 -115 -224 -154q-82 -19 -243 -25q-110 -4 -436 -4q-267 0 -407 18q-266 34 -335 236q-48 140 -48 470q0 256 30 358q54 183 231 250q140 53 564 53q536 0 655 -36q142 -43 197 -155q43 -88 43 -250v-47h-397q-5 68 -21 96
q-31 54 -180 64q-11 1 -199 1q-298 0 -352 -10q-144 -27 -156 -192q-4 -56 -4 -178q0 -226 57 -284q46 -47 179 -59q45 -4 194 -4q351 0 414 27q79 34 81 166zM1333 1860l85 -257l-571 -131l-62 149z" />
    <glyph glyph-name="cacute" unicode="&#x107;" horiz-adv-x="1550" 
d="M1430 591h-358q-9 94 -120 118q-41 9 -188 9q-161 0 -215 -28q-86 -44 -86 -212q0 -165 88 -213q48 -26 228 -26q143 0 187 11q104 26 114 123h361q-3 -265 -207 -346q-120 -48 -441 -48q-418 0 -547 97q-137 103 -137 395q0 326 155 425q128 82 512 82q225 0 326 -16
q210 -34 276 -143q49 -81 52 -228zM1039 1470l80 -217l-487 -164l-51 137z" />
    <glyph glyph-name="Ccaron" unicode="&#x10c;" horiz-adv-x="2038" 
d="M1486 514h402v-62q0 -191 -45 -279q-58 -115 -224 -154q-82 -19 -243 -25q-110 -4 -436 -4q-267 0 -407 18q-266 34 -335 236q-48 140 -48 470q0 256 30 358q54 183 231 250q140 53 564 53q536 0 655 -36q142 -43 197 -155q43 -88 43 -250v-47h-397q-5 68 -21 96
q-31 54 -180 64q-11 1 -199 1q-298 0 -352 -10q-144 -27 -156 -192q-4 -56 -4 -178q0 -226 57 -284q46 -47 179 -59q45 -4 194 -4q351 0 414 27q79 34 81 166zM1020 1472l-489 247l72 130l417 -115l415 115l73 -130z" />
    <glyph glyph-name="ccaron" unicode="&#x10d;" horiz-adv-x="1550" 
d="M1430 591h-358q-9 94 -120 118q-41 9 -188 9q-161 0 -215 -28q-86 -44 -86 -212q0 -165 88 -213q48 -26 228 -26q143 0 187 11q104 26 114 123h361q-3 -265 -207 -346q-120 -48 -441 -48q-418 0 -547 97q-137 103 -137 395q0 326 155 425q128 82 512 82q225 0 326 -16
q210 -34 276 -143q49 -81 52 -228zM782 1089l-411 247l56 122l355 -143l355 143l56 -122z" />
    <glyph glyph-name="Dcaron" unicode="&#x10e;" horiz-adv-x="2156" 
d="M177 0v1365h1181q179 0 305 -22q190 -33 272 -181q70 -126 70 -480q0 -223 -11 -299q-47 -323 -335 -371q-72 -12 -247 -12h-1235zM593 325h697q117 0 169 16q92 28 117 141q11 49 11 197q0 202 -45 266q-57 81 -245 81h-704v-701zM1037 1472l-489 247l72 130l417 -115
l415 115l73 -130z" />
    <glyph glyph-name="dcaron" unicode="&#x10f;" horiz-adv-x="1927" 
d="M1136 0v209q-47 -144 -167 -195q-86 -37 -265 -37q-340 0 -465 80q-88 56 -115 181q-15 69 -15 223q0 233 44 331q84 186 517 186q289 0 380 -87q31 -30 75 -100v574h352v-1365h-341zM782 717q-207 0 -256 -42q-61 -52 -61 -203q0 -170 80 -206q58 -26 243 -26
q231 0 284 41q58 45 58 192q0 174 -73 214q-55 30 -275 30zM1695 1379l232 -122l-238 -305l-137 75z" />
    <glyph glyph-name="Dslash" unicode="&#x110;" horiz-adv-x="2156" 
d="M178 812v553h1181q180 0 306 -22q190 -33 272 -181q70 -126 70 -480q0 -218 -12 -299q-48 -324 -334 -371q-72 -12 -247 -12h-1236v566h-164v246h164zM594 812h383v-246h-383v-241h697q118 0 170 16q92 28 117 141q11 49 11 197q0 202 -45 266q-57 81 -245 81h-705v-214z
" />
    <glyph glyph-name="dcroat" unicode="&#x111;" horiz-adv-x="1627" 
d="M1477 1085v-1085h-341v209q-47 -144 -167 -195q-86 -37 -265 -37q-340 0 -465 80q-88 56 -115 181q-15 69 -15 223q0 234 44 331q84 186 517 186q289 0 380 -87q31 -30 75 -100v294h-314v171h314v109h352v-109h150v-171h-150zM782 717q-207 0 -256 -42q-61 -52 -61 -203
q0 -170 80 -206q58 -26 243 -26q231 0 284 41q58 45 58 192q0 174 -73 214q-55 30 -275 30z" />
    <glyph glyph-name="Emacron" unicode="&#x112;" horiz-adv-x="1834" 
d="M177 1365h1513v-310h-1103v-233h1041v-270h-1041v-242h1117v-310h-1527v1365zM1400 1753v-221h-932v221h932z" />
    <glyph glyph-name="emacron" unicode="&#x113;" horiz-adv-x="1509" 
d="M1053 304h346q-4 -234 -212 -289q-122 -32 -397 -32q-256 0 -390 25q-178 33 -246 179q-46 99 -46 278q0 227 68 340q84 139 294 158q109 10 295 10q243 0 309 -10q184 -28 261 -140q64 -93 64 -309v-105h-933v-45q0 -146 150 -162q65 -7 185 -7q117 0 155 9
q90 21 97 100zM1056 597q-1 120 -98 150q-42 13 -204 13q-194 0 -245 -45q-42 -37 -42 -102v-16h589zM1148 1340v-199h-761v199h761z" />
    <glyph glyph-name="Edotaccent" unicode="&#x116;" horiz-adv-x="1834" 
d="M177 1365h1513v-310h-1103v-233h1041v-270h-1041v-242h1117v-310h-1527v1365zM1121 1760v-246h-375v246h375z" />
    <glyph glyph-name="edotaccent" unicode="&#x117;" horiz-adv-x="1509" 
d="M1053 304h346q-4 -234 -212 -289q-122 -32 -397 -32q-256 0 -390 25q-178 33 -246 179q-46 99 -46 278q0 227 68 340q84 139 294 158q109 10 295 10q243 0 309 -10q184 -28 261 -140q64 -93 64 -309v-105h-933v-45q0 -146 150 -162q65 -7 185 -7q117 0 155 9
q90 21 97 100zM1056 597q-1 120 -98 150q-42 13 -204 13q-194 0 -245 -45q-42 -37 -42 -102v-16h589zM914 1350v-221h-293v221h293z" />
    <glyph glyph-name="Eogonek" unicode="&#x118;" horiz-adv-x="1834" 
d="M1704 0q-223 -132 -223 -229q0 -89 120 -89q43 0 103 16v-186q-67 -15 -123 -15q-205 0 -285 138q-31 54 -31 110q0 154 200 255h-1288v1365h1513v-310h-1103v-233h1041v-270h-1041v-242h1117v-310z" />
    <glyph glyph-name="eogonek" unicode="&#x119;" horiz-adv-x="1509" 
d="M1190 -247v-161q-58 -13 -107 -13q-180 0 -248 118q-26 45 -26 97q0 101 134 193l-179 -4q-201 -4 -364 25q-177 32 -245 179q-46 99 -46 278q0 228 67 340q84 139 294 158q109 10 296 10q243 0 309 -10q183 -28 260 -140q64 -93 64 -309v-105h-933q2 -157 77 -189
q43 -18 119 -21q109 -4 140 -4q118 0 155 9q89 22 96 100h346q1 -142 -73 -215q-28 -28 -132 -77q-191 -91 -191 -198q0 -75 102 -75q32 0 85 14zM1056 597q-1 120 -98 150q-42 13 -203 13q-196 0 -246 -45q-42 -38 -42 -102q0 -5 1 -16h588z" />
    <glyph glyph-name="Ecaron" unicode="&#x11a;" horiz-adv-x="1834" 
d="M177 1365h1513v-310h-1103v-233h1041v-270h-1041v-242h1117v-310h-1527v1365zM934 1472l-489 247l72 130l417 -115l415 115l73 -130z" />
    <glyph glyph-name="ecaron" unicode="&#x11b;" horiz-adv-x="1509" 
d="M1053 304h346q-4 -234 -212 -289q-122 -32 -397 -32q-256 0 -390 25q-178 33 -246 179q-46 99 -46 278q0 227 68 340q84 139 294 158q109 10 295 10q243 0 309 -10q184 -28 261 -140q64 -93 64 -309v-105h-933v-45q0 -146 150 -162q65 -7 185 -7q117 0 155 9
q90 21 97 100zM1056 597q-1 120 -98 150q-42 13 -204 13q-194 0 -245 -45q-42 -37 -42 -102v-16h589zM768 1089l-411 247l56 122l355 -143l355 143l56 -122z" />
    <glyph glyph-name="Gbreve" unicode="&#x11e;" horiz-adv-x="2078" 
d="M1927 904h-407q-6 148 -169 151h-108l-146 2q-66 1 -162 -1l-132 -2q-112 0 -161 -33q-60 -40 -69 -146q-6 -71 -6 -222q0 -189 31 -248q48 -92 237 -99q27 -1 322 -1q170 0 208 4q85 9 121.5 44.5t36.5 119.5q0 13 -1 41h-526v255h931v-189q0 -229 -21 -328
q-53 -251 -382 -260q-74 -2 -521 -2q-292 0 -422 10q-311 24 -389 245q-42 119 -42 419q0 334 50 463q62 160 251 209q150 39 620 39q365 0 494 -12q289 -27 343 -240q19 -75 19 -219zM1510 1830q-9 -104 -86 -187q-146 -157 -385 -157q-240 0 -385 157q-75 81 -86 187h226
q23 -57 66 -84q83 -53 179 -53t179 53q43 27 66 84h226z" />
    <glyph glyph-name="gbreve" unicode="&#x11f;" horiz-adv-x="1628" 
d="M147 -105h356q10 -78 119 -98q38 -7 172 -7q234 0 299 67q41 42 41 205v142q-51 -113 -131 -155q-94 -49 -326 -49q-317 0 -440 90q-83 61 -111 186q-16 72 -16 222q0 181 29 263q50 143 234 190q102 26 319 26q218 0 287 -28q115 -47 155 -220v228h344v-862
q0 -182 -18 -257q-46 -193 -252 -251q-145 -41 -461 -41q-176 0 -265 13q-331 48 -335 336zM772 714q-188 0 -238 -28q-70 -39 -70 -188q0 -171 73 -207q57 -28 241 -28q240 0 290 41q56 46 56 188q0 111 -28 154q-34 53 -151 65q-30 3 -173 3zM1205 1441
q-28 -204 -209 -292q-87 -42 -189 -42q-159 0 -266 88q-111 90 -132 246h180q26 -66 48 -88q62 -63 170 -63t170 63q22 22 48 88h180z" />
    <glyph glyph-name="Gcommaaccent" unicode="&#x122;" horiz-adv-x="2078" 
d="M1927 904h-407q-6 148 -169 151h-108l-146 2q-66 1 -162 -1l-132 -2q-112 0 -161 -33q-60 -40 -69 -146q-6 -71 -6 -222q0 -189 31 -248q48 -92 237 -99q27 -1 322 -1q170 0 208 4q85 9 121.5 44.5t36.5 119.5q0 13 -1 41h-526v255h931v-189q0 -229 -21 -328
q-53 -251 -382 -260q-74 -2 -521 -2q-292 0 -422 10q-311 24 -389 245q-42 119 -42 419q0 334 50 463q62 160 251 209q150 39 620 39q365 0 494 -12q289 -27 343 -240q19 -75 19 -219zM1001 -75l245 -135l-224 -278l-164 74z" />
    <glyph glyph-name="gcommaaccent" unicode="&#x123;" horiz-adv-x="1628" 
d="M147 -105h356q10 -78 119 -98q38 -7 172 -7q234 0 299 67q41 42 41 205v142q-51 -113 -131 -155q-94 -49 -326 -49q-317 0 -440 90q-83 61 -111 186q-16 72 -16 222q0 181 29 263q50 143 234 190q102 26 319 26q218 0 287 -28q115 -47 155 -220v228h344v-862
q0 -182 -18 -257q-46 -193 -252 -251q-145 -41 -461 -41q-176 0 -265 13q-331 48 -335 336zM772 714q-188 0 -238 -28q-70 -39 -70 -188q0 -171 73 -207q57 -28 241 -28q240 0 290 41q56 46 56 188q0 111 -28 154q-34 53 -151 65q-30 3 -173 3zM854 1089l-224 128l231 271
l137 -74z" />
    <glyph glyph-name="Imacron" unicode="&#x12a;" horiz-adv-x="771" 
d="M177 0v1365h416v-1365h-416zM749 1753v-221h-727v221h727z" />
    <glyph glyph-name="imacron" unicode="&#x12b;" horiz-adv-x="653" 
d="M150 0v956h352v-956h-352zM632 1340v-195h-611v195h611z" />
    <glyph glyph-name="Iogonek" unicode="&#x12e;" horiz-adv-x="771" 
d="M594 0q-69 -42 -123 -98q-72 -74 -72 -133q0 -38 33 -63q30 -24 69 -24q30 0 93 16v-186q-68 -15 -110 -15q-104 0 -189 52q-112 68 -112 196q0 145 192 255h-198v1365h417v-1365z" />
    <glyph glyph-name="iogonek" unicode="&#x12f;" horiz-adv-x="653" 
d="M502 0q-159 -102 -159 -199q0 -35 28 -55.5t64 -20.5q27 0 67 14v-161q-60 -13 -94 -13q-88 0 -162 45q-96 58 -96 169q0 119 161 221h-161v956h352v-956zM150 1109v256h352v-256h-352z" />
    <glyph glyph-name="Idotaccent" unicode="&#x130;" horiz-adv-x="771" 
d="M177 0v1365h416v-1365h-416zM572 1760v-246h-375v246h375z" />
    <glyph glyph-name="dotlessi" unicode="&#x131;" horiz-adv-x="653" 
d="M150 0v956h352v-956h-352z" />
    <glyph glyph-name="Kcommaaccent" unicode="&#x136;" horiz-adv-x="2051" 
d="M177 0v1365h416v-509h218l564 509h571l-784 -674l861 -691h-604l-617 524h-209v-524h-416zM947 -75l245 -135l-224 -278l-164 74z" />
    <glyph glyph-name="kcommaaccent" unicode="&#x137;" horiz-adv-x="1466" 
d="M150 0v1365h352v-729h83l334 320h472l-495 -446l569 -510h-476l-391 387h-96v-387h-352zM705 -75l225 -128l-231 -272l-137 75z" />
    <glyph glyph-name="Lacute" unicode="&#x139;" horiz-adv-x="1575" 
d="M177 0v1365h416v-1028h940v-337h-1356zM704 1860l85 -257l-571 -131l-62 149z" />
    <glyph glyph-name="lacute" unicode="&#x13a;" horiz-adv-x="653" 
d="M150 0v1365h352v-1365h-352zM577 1853l80 -217l-487 -164l-51 137z" />
    <glyph glyph-name="Lcommaaccent" unicode="&#x13b;" horiz-adv-x="1575" 
d="M177 0v1365h416v-1028h940v-337h-1356zM818 -75l245 -135l-224 -278l-164 74z" />
    <glyph glyph-name="lcommaaccent" unicode="&#x13c;" horiz-adv-x="653" 
d="M150 0v1365h352v-1365h-352zM285 -75l225 -128l-231 -272l-137 75z" />
    <glyph glyph-name="Lcaron" unicode="&#x13d;" horiz-adv-x="1575" 
d="M177 0v1365h416v-1028h940v-337h-1356zM1006 1379l252 -128l-224 -326l-171 74z" />
    <glyph glyph-name="lcaron" unicode="&#x13e;" horiz-adv-x="952" 
d="M150 0v1365h352v-1365h-352zM720 1379l232 -122l-238 -305l-137 75z" />
    <glyph glyph-name="Lslash" unicode="&#x141;" horiz-adv-x="1575" 
d="M178 483l-164 -100v253l164 100v629h416v-440l383 220v-253l-383 -220v-335h940v-337h-1356v483z" />
    <glyph glyph-name="lslash" unicode="&#x142;" horiz-adv-x="666" 
d="M157 567l-150 -85v193l150 85v605h352v-465l151 85v-193l-151 -85v-707h-352v567z" />
    <glyph glyph-name="Nacute" unicode="&#x143;" horiz-adv-x="2226" 
d="M177 0v1365h661l828 -1039l-11 1039h393v-1365h-667l-816 1028l12 -1028h-400zM1440 1860l85 -257l-571 -131l-62 149z" />
    <glyph glyph-name="nacute" unicode="&#x144;" horiz-adv-x="1599" 
d="M150 0v956h343v-222q35 132 117 183q98 61 325 61q310 0 427 -136q87 -101 87 -334v-508h-352v493q0 138 -81 181q-55 29 -212 29q-166 0 -230 -51q-72 -58 -72 -220v-432h-352zM1043 1470l80 -217l-487 -164l-51 137z" />
    <glyph glyph-name="Ncommaaccent" unicode="&#x145;" horiz-adv-x="2226" 
d="M177 0v1365h661l828 -1039l-11 1039h393v-1365h-667l-816 1028l12 -1028h-400zM1034 -75l245 -135l-224 -278l-164 74z" />
    <glyph glyph-name="ncommaaccent" unicode="&#x146;" horiz-adv-x="1599" 
d="M150 0v956h343v-222q35 132 117 183q98 61 325 61q310 0 427 -136q87 -101 87 -334v-508h-352v493q0 138 -81 181q-55 29 -212 29q-166 0 -230 -51q-72 -58 -72 -220v-432h-352zM759 -75l225 -128l-231 -272l-137 75z" />
    <glyph glyph-name="Ncaron" unicode="&#x147;" horiz-adv-x="2226" 
d="M177 0v1365h661l828 -1039l-11 1039h393v-1365h-667l-816 1028l12 -1028h-400zM1127 1472l-489 247l72 130l417 -115l415 115l73 -130z" />
    <glyph glyph-name="ncaron" unicode="&#x148;" horiz-adv-x="1599" 
d="M150 0v956h343v-222q35 132 117 183q98 61 325 61q310 0 427 -136q87 -101 87 -334v-508h-352v493q0 138 -81 181q-55 29 -212 29q-166 0 -230 -51q-72 -58 -72 -220v-432h-352zM779 1089l-411 247l56 122l355 -143l355 143l56 -122z" />
    <glyph glyph-name="Omacron" unicode="&#x14c;" horiz-adv-x="2165" 
d="M1023 1379q521 0 637 -21q261 -47 324 -269q23 -81 28 -219q3 -80 3 -197q0 -258 -32 -379q-71 -269 -414 -296q-152 -12 -496 -12q-297 0 -361 3q-243 11 -352 63q-153 72 -193 289q-17 92 -17 346q0 172 3 219q8 124 41 213q79 213 395 245q149 15 434 15zM1081 1046
q-331 0 -408 -32q-72 -30 -93 -142q-9 -48 -9 -180q0 -173 21 -246q31 -108 198 -120q97 -7 235 -7q372 0 453 26q91 29 115 151q9 46 9 205q0 122 -6 164q-17 118 -96 153q-46 21 -193 27q-24 1 -226 1zM1548 1753v-221h-932v221h932z" />
    <glyph glyph-name="omacron" unicode="&#x14d;" horiz-adv-x="1583" 
d="M786 978q257 0 412 -27q183 -32 240 -159q35 -78 35 -288q0 -255 -39 -342q-59 -132 -297 -169q-98 -15 -367 -15q-427 0 -549 94q-80 62 -102 189q-10 57 -10 222q0 240 51 330q65 114 287 149q102 16 339 16zM784 718q-192 0 -248 -32q-73 -42 -73 -205q0 -84 7 -117
q14 -65 62 -94q55 -33 259 -33q214 0 267 37q61 43 61 199q0 92 -9 127q-23 90 -135 111q-36 7 -191 7zM1172 1340v-199h-761v199h761z" />
    <glyph glyph-name="Ohungarumlaut" unicode="&#x150;" horiz-adv-x="2165" 
d="M1023 1379q521 0 637 -21q261 -47 324 -269q23 -81 28 -219q3 -80 3 -197q0 -258 -32 -379q-71 -269 -414 -296q-152 -12 -496 -12q-297 0 -361 3q-243 11 -352 63q-153 72 -193 289q-17 92 -17 346q0 172 3 219q8 124 41 213q79 213 395 245q149 15 434 15zM1081 1046
q-331 0 -408 -32q-72 -30 -93 -142q-9 -48 -9 -180q0 -173 21 -246q31 -108 198 -120q97 -7 235 -7q372 0 453 26q91 29 115 151q9 46 9 205q0 122 -6 164q-17 118 -96 153q-46 21 -193 27q-24 1 -226 1zM1014 1867l146 -189l-366 -213l-103 122zM1478 1867l146 -189
l-366 -213l-103 122z" />
    <glyph glyph-name="ohungarumlaut" unicode="&#x151;" horiz-adv-x="1583" 
d="M786 978q257 0 412 -27q183 -32 240 -159q35 -78 35 -288q0 -255 -39 -342q-59 -132 -297 -169q-98 -15 -367 -15q-427 0 -549 94q-80 62 -102 189q-10 57 -10 222q0 240 51 330q65 114 287 149q102 16 339 16zM784 718q-192 0 -248 -32q-73 -42 -73 -205q0 -84 7 -117
q14 -65 62 -94q55 -33 259 -33q214 0 267 37q61 43 61 199q0 92 -9 127q-23 90 -135 111q-36 7 -191 7zM736 1477l142 -163l-337 -225l-92 103zM1129 1477l142 -163l-337 -225l-92 103z" />
    <glyph glyph-name="OE" unicode="&#x152;" horiz-adv-x="3198" 
d="M1582 0v170q-36 -97 -164 -145q-66 -25 -163 -26q-55 1 -166 1l-150 -1q-266 -2 -409 20q-243 37 -323 201q-37 76 -49 204q-8 86 -8 235q0 271 28 398q43 195 221 267q83 34 269 41q50 2 275 2q341 0 454 -28q88 -22 144 -86q22 -25 41 -79v191h1486v-310h-1103v-233
h1034v-270h-1034v-242h1103v-310h-1486zM1077 1039q-307 0 -358 -9q-84 -15 -117.5 -56.5t-40.5 -128.5q-8 -99 -8 -177q0 -241 71 -296q59 -46 228 -53q49 0 203 -3l158 -3q290 -6 342 113q27 61 27 305q0 127 -18 180q-31 91 -126 110q-89 18 -361 18z" />
    <glyph glyph-name="oe" unicode="&#x153;" horiz-adv-x="2500" 
d="M2042 297h348q0 -276 -339 -312q-66 -7 -252 -7q-231 0 -294 10q-184 31 -227 152q-40 -97 -136 -134q-72 -28 -310 -28q-430 0 -540 53q-138 66 -167 205q-16 77 -16 280q0 209 49 293q73 126 264 151q138 18 377 18q203 0 272 -13q164 -31 207 -146q42 110 200 143
q76 16 261 16q389 0 500 -69q117 -73 144 -237q7 -43 7 -153v-115h-938q-1 -13 -1 -18q0 -138 102 -177q55 -21 227 -21q129 0 161 7q89 19 101 102zM2039 591v34q-2 95 -106 124q-50 14 -182 14q-153 0 -205 -18q-100 -35 -100 -154h593zM794 718q-223 0 -277 -39
q-63 -46 -63 -199q0 -165 69 -213q49 -34 265 -34q200 0 251 29q79 44 79 217q0 168 -86 212q-52 27 -238 27z" />
    <glyph glyph-name="Racute" unicode="&#x154;" horiz-adv-x="2062" 
d="M177 0v1365h1179q204 0 293 -23q162 -42 214 -176q36 -93 36 -246q0 -246 -116 -328q-62 -44 -265 -73q24 -2 68 -4q146 -7 195 -38q99 -62 99 -261v-216h-421v170q0 154 -109 170q-34 5 -120 5h-639v-345h-414zM591 679h650q129 0 170 17q70 29 70 137q0 130 -47 166
q-40 31 -178 31h-665v-351zM1310 1860l85 -257l-571 -131l-62 149z" />
    <glyph glyph-name="racute" unicode="&#x155;" horiz-adv-x="1302" 
d="M150 0v956h338v-213q23 65 36 89q24 45 60 73q94 73 297 73q229 0 316 -106q64 -78 64 -276q0 -16 -2 -62h-330q1 10 1 15q0 88 -52 123q-42 29 -135 29q-149 0 -205 -84q-36 -54 -36 -177v-440h-352zM908 1470l80 -217l-487 -164l-51 137z" />
    <glyph glyph-name="Rcommaaccent" unicode="&#x156;" horiz-adv-x="2062" 
d="M177 0v1365h1179q204 0 293 -23q162 -42 214 -176q36 -93 36 -246q0 -246 -116 -328q-62 -44 -265 -73q24 -2 68 -4q146 -7 195 -38q99 -62 99 -261v-216h-421v170q0 154 -109 170q-34 5 -120 5h-639v-345h-414zM591 679h650q129 0 170 17q70 29 70 137q0 130 -47 166
q-40 31 -178 31h-665v-351zM986 -75l245 -135l-224 -278l-164 74z" />
    <glyph glyph-name="rcommaaccent" unicode="&#x157;" horiz-adv-x="1302" 
d="M150 0v956h338v-213q23 65 36 89q24 45 60 73q94 73 297 73q229 0 316 -106q64 -78 64 -276q0 -16 -2 -62h-330q1 10 1 15q0 88 -52 123q-42 29 -135 29q-149 0 -205 -84q-36 -54 -36 -177v-440h-352zM288 -75l225 -128l-231 -272l-137 75z" />
    <glyph glyph-name="Rcaron" unicode="&#x158;" horiz-adv-x="2062" 
d="M177 0v1365h1179q204 0 293 -23q162 -42 214 -176q36 -93 36 -246q0 -246 -116 -328q-62 -44 -265 -73q24 -2 68 -4q146 -7 195 -38q99 -62 99 -261v-216h-421v170q0 154 -109 170q-34 5 -120 5h-639v-345h-414zM591 679h650q129 0 170 17q70 29 70 137q0 130 -47 166
q-40 31 -178 31h-665v-351zM997 1472l-489 247l72 130l417 -115l415 115l73 -130z" />
    <glyph glyph-name="rcaron" unicode="&#x159;" horiz-adv-x="1302" 
d="M150 0v956h338v-213q23 65 36 89q24 45 60 73q94 73 297 73q229 0 316 -106q64 -78 64 -276q0 -16 -2 -62h-330q1 10 1 15q0 88 -52 123q-42 29 -135 29q-149 0 -205 -84q-36 -54 -36 -177v-440h-352zM651 1089l-411 247l56 122l355 -143l355 143l56 -122z" />
    <glyph glyph-name="Sacute" unicode="&#x15a;" horiz-adv-x="1999" 
d="M155 435h408q2 -59 10 -82q14 -40 57 -54q35 -12 112 -14l161 -5q36 -1 306 4q109 2 153 17q82 28 82 111q0 103 -120 119q-30 4 -210 4h-376q-278 0 -376 30q-124 38 -174 144q-38 81 -38 230q0 238 111 328q92 76 345 99q100 9 398 9q426 0 535 -24q145 -32 205 -121
q55 -81 55 -234v-47h-405q-1 106 -112 129q-24 5 -199 5q-245 0 -377 -9q-72 -5 -103 -23q-44 -26 -44 -90q0 -86 88 -109q38 -10 168 -10h387q39 0 204 -6q192 -7 271 -40q179 -75 179 -372q0 -275 -150 -357q-141 -77 -727 -77q-447 0 -586 29q-135 28 -191 119
q-48 78 -48 225q0 16 1 72zM1282 1860l85 -257l-571 -131l-62 149z" />
    <glyph glyph-name="sacute" unicode="&#x15b;" horiz-adv-x="1535" 
d="M102 295h372q3 -79 134 -97q22 -3 190 -3q123 0 161 6q114 18 114 83q0 67 -102 75q-51 4 -184 4h-175q-228 0 -337 36q-163 54 -163 255q0 234 180 285q138 39 473 39q396 0 509 -61q102 -55 109 -225h-370q-8 53 -107 65q-24 3 -139 3q-127 0 -166 -5
q-125 -16 -125 -76q0 -55 97 -68q15 -2 135 -2h248q241 0 330 -38q147 -63 147 -264q0 -138 -62 -208.5t-199.5 -95.5t-453.5 -25q-192 0 -246 4q-156 11 -238 54q-129 67 -132 259zM1025 1470l80 -217l-487 -164l-51 137z" />
    <glyph glyph-name="Scedilla" unicode="&#x15e;" horiz-adv-x="1999" 
d="M155 435h408q2 -59 10 -82q14 -40 57 -54q35 -12 112 -14l161 -5q36 -1 306 4q109 2 153 17q82 28 82 111q0 103 -120 119q-30 4 -210 4h-376q-278 0 -376 30q-124 38 -174 144q-38 81 -38 230q0 238 111 328q92 76 345 99q100 9 398 9q426 0 535 -24q145 -32 205 -121
q55 -81 55 -234v-47h-405q-1 106 -112 129q-24 5 -199 5q-245 0 -377 -9q-72 -5 -103 -23q-44 -26 -44 -90q0 -86 88 -109q38 -10 168 -10h387q39 0 204 -6q192 -7 271 -40q179 -75 179 -372q0 -275 -150 -357q-141 -77 -727 -77q-447 0 -586 29q-135 28 -191 119
q-48 78 -48 225q0 16 1 72zM965 -75l245 -135l-224 -278l-164 74z" />
    <glyph glyph-name="scedilla" unicode="&#x15f;" horiz-adv-x="1535" 
d="M102 295h372q3 -79 134 -97q22 -3 190 -3q123 0 161 6q114 18 114 83q0 67 -102 75q-51 4 -184 4h-175q-228 0 -337 36q-163 54 -163 255q0 234 180 285q138 39 473 39q396 0 509 -61q102 -55 109 -225h-370q-8 53 -107 65q-24 3 -139 3q-127 0 -166 -5
q-125 -16 -125 -76q0 -55 97 -68q15 -2 135 -2h248q241 0 330 -38q147 -63 147 -264q0 -138 -62 -208.5t-199.5 -95.5t-453.5 -25q-192 0 -246 4q-156 11 -238 54q-129 67 -132 259zM740 -75l225 -128l-231 -272l-137 75z" />
    <glyph glyph-name="Scaron" unicode="&#x160;" horiz-adv-x="1999" 
d="M155 435h408q2 -59 10 -82q14 -40 57 -54q35 -12 112 -14l161 -5q36 -1 306 4q109 2 153 17q82 28 82 111q0 103 -120 119q-30 4 -210 4h-376q-278 0 -376 30q-124 38 -174 144q-38 81 -38 230q0 238 111 328q92 76 345 99q100 9 398 9q426 0 535 -24q145 -32 205 -121
q55 -81 55 -234v-47h-405q-1 106 -112 129q-24 5 -199 5q-245 0 -377 -9q-72 -5 -103 -23q-44 -26 -44 -90q0 -86 88 -109q38 -10 168 -10h387q39 0 204 -6q192 -7 271 -40q179 -75 179 -372q0 -275 -150 -357q-141 -77 -727 -77q-447 0 -586 29q-135 28 -191 119
q-48 78 -48 225q0 16 1 72zM969 1472l-489 247l72 130l417 -115l415 115l73 -130z" />
    <glyph glyph-name="scaron" unicode="&#x161;" horiz-adv-x="1535" 
d="M102 295h372q3 -79 134 -97q22 -3 190 -3q123 0 161 6q114 18 114 83q0 67 -102 75q-51 4 -184 4h-175q-228 0 -337 36q-163 54 -163 255q0 234 180 285q138 39 473 39q396 0 509 -61q102 -55 109 -225h-370q-8 53 -107 65q-24 3 -139 3q-127 0 -166 -5
q-125 -16 -125 -76q0 -55 97 -68q15 -2 135 -2h248q241 0 330 -38q147 -63 147 -264q0 -138 -62 -208.5t-199.5 -95.5t-453.5 -25q-192 0 -246 4q-156 11 -238 54q-129 67 -132 259zM767 1089l-411 247l56 122l355 -143l355 143l56 -122z" />
    <glyph glyph-name="Tcommaaccent" unicode="&#x162;" horiz-adv-x="1742" 
d="M663 0v1028h-608v337h1632v-337h-608v-1028h-416zM841 -75l245 -135l-224 -278l-164 74z" />
    <glyph glyph-name="tcommaaccent" unicode="&#x163;" horiz-adv-x="1313" 
d="M927 410h270v-76q0 -202 -70 -267q-95 -89 -355 -89q-156 0 -217 8q-129 17 -199 74q-93 76 -93 267v389h-181v240h181v226h358v-226h576v-240h-576v-314q0 -96 27 -131q32 -41 125 -41q89 0 120 25q34 29 34 116v39zM660 -75l225 -128l-231 -272l-137 75z" />
    <glyph glyph-name="Tcaron" unicode="&#x164;" horiz-adv-x="1742" 
d="M663 0v1028h-608v337h1632v-337h-608v-1028h-416zM872 1472l-489 247l72 130l417 -115l415 115l73 -130z" />
    <glyph glyph-name="tcaron" unicode="&#x165;" horiz-adv-x="1313" 
d="M927 410h270v-76q0 -202 -70 -267q-95 -89 -355 -89q-156 0 -217 8q-129 17 -199 74q-93 76 -93 267v389h-181v240h181v226h358v-226h576v-240h-576v-314q0 -96 27 -131q32 -41 125 -41q89 0 120 25q34 29 34 116v39zM867 1492l232 -122l-238 -305l-137 75z" />
    <glyph glyph-name="Umacron" unicode="&#x16a;" horiz-adv-x="2094" 
d="M172 1365h416v-673q0 -17 -1 -35v-16q0 -121 9 -169q24 -128 184 -148q71 -9 222 -9q224 0 314 7q141 11 173 106q21 62 20 193l-1 118v626h416v-715q0 -253 -23 -351q-47 -200 -270 -273q-107 -35 -299 -40q83 2 -302 2q-316 0 -441 12q-334 32 -393 297
q-24 108 -24 334v734zM1513 1753v-221h-932v221h932z" />
    <glyph glyph-name="umacron" unicode="&#x16b;" horiz-adv-x="1599" 
d="M1449 956v-956h-343v222q-35 -132 -117 -183q-98 -61 -325 -61q-311 0 -427 136q-87 102 -87 334v508h352v-493q0 -140 83 -182q55 -28 215 -28q164 0 227 52q70 58 70 219v432h352zM1180 1340v-199h-761v199h761z" />
    <glyph glyph-name="Uring" unicode="&#x16e;" horiz-adv-x="2094" 
d="M172 1365h416v-673q0 -17 -1 -35v-16q0 -121 9 -169q24 -128 184 -148q71 -9 222 -9q224 0 314 7q141 11 173 106q21 62 20 193l-1 118v626h416v-715q0 -253 -23 -351q-47 -200 -270 -273q-107 -35 -299 -40q83 2 -302 2q-316 0 -441 12q-334 32 -393 297
q-24 108 -24 334v734zM1057 1862q296 0 296 -189q0 -207 -318 -207q-117 0 -194 40q-99 51 -99 157q0 199 315 199zM1046 1742q-137 0 -137 -82q0 -74 132 -74q145 0 145 78t-140 78z" />
    <glyph glyph-name="uring" unicode="&#x16f;" horiz-adv-x="1599" 
d="M1449 956v-956h-343v222q-35 -132 -117 -183q-98 -61 -325 -61q-311 0 -427 136q-87 102 -87 334v508h352v-493q0 -140 83 -182q55 -28 215 -28q164 0 227 52q70 58 70 219v432h352zM808 1452q273 0 273 -182q0 -199 -293 -199q-109 0 -180 39q-90 49 -90 150
q0 192 290 192zM797 1339q-134 0 -134 -79q0 -76 131 -76q142 0 142 76q0 79 -139 79z" />
    <glyph glyph-name="Uhungarumlaut" unicode="&#x170;" horiz-adv-x="2094" 
d="M172 1365h416v-673q0 -17 -1 -35v-16q0 -121 9 -169q24 -128 184 -148q71 -9 222 -9q224 0 314 7q141 11 173 106q21 62 20 193l-1 118v626h416v-715q0 -253 -23 -351q-47 -200 -270 -273q-107 -35 -299 -40q83 2 -302 2q-316 0 -441 12q-334 32 -393 297
q-24 108 -24 334v734zM980 1867l146 -189l-366 -213l-103 122zM1444 1867l146 -189l-366 -213l-103 122z" />
    <glyph glyph-name="uhungarumlaut" unicode="&#x171;" horiz-adv-x="1599" 
d="M1449 956v-956h-343v222q-35 -132 -117 -183q-98 -61 -325 -61q-311 0 -427 136q-87 102 -87 334v508h352v-493q0 -140 83 -182q55 -28 215 -28q164 0 227 52q70 58 70 219v432h352zM744 1477l142 -163l-337 -225l-92 103zM1137 1477l142 -163l-337 -225l-92 103z" />
    <glyph glyph-name="Uogonek" unicode="&#x172;" horiz-adv-x="2094" 
d="M1622 -289v-185q-68 -15 -123 -15q-205 0 -285 138q-31 54 -31 110q0 131 173 233q-154 -4 -280 -4q-354 0 -488 12q-345 31 -399 325q-18 99 -18 306v734h416v-593v-81q0 -17 -1 -34v-16q0 -123 9 -170q24 -127 184 -147q71 -9 222 -9q223 0 313 7q140 11 174 106
q21 60 20 193l-1 118v626h416v-715q0 -178 -5 -235q-21 -235 -167 -329q-27 -17 -135 -71q-64 -32 -134 -97q-83 -77 -83 -133q0 -89 120 -89q43 0 103 15z" />
    <glyph glyph-name="uogonek" unicode="&#x173;" horiz-adv-x="1599" 
d="M1449 0q-186 -105 -186 -197q0 -76 101 -76q32 0 85 14v-162q-59 -12 -107 -12q-179 0 -247 118q-26 45 -26 97q0 118 167 218h-130v222q-35 -132 -117 -183q-98 -61 -325 -61q-311 0 -427 136q-87 102 -87 334v508h352v-493q0 -140 83 -182q55 -28 215 -28q164 0 227 52
q70 58 70 219v432h352v-956z" />
    <glyph glyph-name="Ydieresis" unicode="&#x178;" horiz-adv-x="2023" 
d="M808 0v473l-781 892h531l461 -565l457 565h520l-770 -892v-473h-418zM912 1757v-239h-357v239h357zM1467 1757v-239h-357v239h357z" />
    <glyph glyph-name="Zacute" unicode="&#x179;" horiz-adv-x="1889" 
d="M116 0v314l1031 741h-1005v310h1614v-313l-1045 -742h1062v-310h-1657zM1258 1860l85 -257l-571 -131l-62 149z" />
    <glyph glyph-name="zacute" unicode="&#x17a;" horiz-adv-x="1352" 
d="M96 0v240l630 478h-589v238h1100v-267l-615 -452h635v-237h-1161zM934 1470l80 -217l-487 -164l-51 137z" />
    <glyph glyph-name="Zdotaccent" unicode="&#x17b;" horiz-adv-x="1889" 
d="M116 0v314l1031 741h-1005v310h1614v-313l-1045 -742h1062v-310h-1657zM1132 1760v-246h-375v246h375z" />
    <glyph glyph-name="zdotaccent" unicode="&#x17c;" horiz-adv-x="1352" 
d="M96 0v240l630 478h-589v238h1100v-267l-615 -452h635v-237h-1161zM823 1350v-221h-293v221h293z" />
    <glyph glyph-name="Zcaron" unicode="&#x17d;" horiz-adv-x="1889" 
d="M116 0v314l1031 741h-1005v310h1614v-313l-1045 -742h1062v-310h-1657zM945 1472l-489 247l72 130l417 -115l415 115l73 -130z" />
    <glyph glyph-name="zcaron" unicode="&#x17e;" horiz-adv-x="1352" 
d="M96 0v240l630 478h-589v238h1100v-267l-615 -452h635v-237h-1161zM676 1089l-411 247l56 122l355 -143l355 143l56 -122z" />
    <glyph glyph-name="florin" unicode="&#x192;" horiz-adv-x="1612" 
d="M1011 766l-115 -652q-17 -97 -24 -124q-16 -63 -48 -115q-95 -155 -440 -155q-69 0 -247 9l41 232q57 -4 100 -4q160 0 208 38q39 31 63 167l107 604h-228l40 225h228l21 123q17 98 24 125q17 65 48 116q92 154 441 154q71 0 246 -9l-41 -232q-58 4 -100 4
q-156 0 -208 -38q-38 -28 -51 -97q-4 -12 -7 -38q-1 -8 -4 -28l-14 -80h335l-39 -225h-336z" />
    <glyph glyph-name="circumflex" unicode="&#x2c6;" 
d="M512 1458l411 -247l-56 -122l-355 143l-355 -143l-56 122z" />
    <glyph glyph-name="caron" unicode="&#x2c7;" 
d="M512 1089l-411 247l56 122l355 -143l355 143l56 -122z" />
    <glyph glyph-name="macron" unicode="&#x2c9;" 
d="M892 1340v-199h-761v199h761z" />
    <glyph glyph-name="breve" unicode="&#x2d8;" 
d="M910 1441q-28 -204 -209 -292q-87 -42 -189 -42q-159 0 -266 88q-111 90 -132 246h180q26 -66 48 -88q62 -63 170 -63t170 63q22 22 48 88h180z" />
    <glyph glyph-name="dotaccent" unicode="&#x2d9;" 
d="M659 1350v-221h-293v221h293z" />
    <glyph glyph-name="ring" unicode="&#x2da;" 
d="M521 1452q273 0 273 -182q0 -199 -293 -199q-109 0 -180 39q-90 49 -90 150q0 192 290 192zM510 1339q-134 0 -134 -79q0 -76 131 -76q142 0 142 76q0 79 -139 79z" />
    <glyph glyph-name="ogonek" unicode="&#x2db;" 
d="M744 0h211q-187 -112 -187 -199q0 -76 102 -76q32 0 85 14v-161q-60 -13 -107 -13q-180 0 -248 118q-26 45 -26 97q0 119 170 220z" />
    <glyph glyph-name="tilde" unicode="&#x2dc;" 
d="M766 1416l166 -69q-57 -146 -143 -195q-55 -31 -111 -31q-53 0 -163 44.5t-158 44.5q-75 0 -100 -93l-166 68q52 112 95 156q63 65 163 65q64 0 167 -47q87 -40 136 -40q90 0 114 97z" />
    <glyph glyph-name="hungarumlaut" unicode="&#x2dd;" 
d="M440 1477l142 -163l-337 -225l-92 103zM833 1477l142 -163l-337 -225l-92 103z" />
    <glyph glyph-name="Delta" unicode="&#x394;" horiz-adv-x="1365" 
d="M37 0l508 1365h266l516 -1365h-1290zM388 230h583l-292 836z" />
    <glyph glyph-name="Delta" unicode="&#x2206;" horiz-adv-x="1365" 
d="M37 0l508 1365h266l516 -1365h-1290zM388 230h583l-292 836z" />
    <glyph glyph-name="Omega" unicode="&#x3a9;" horiz-adv-x="1365" 
d="M59 0v221h295q-124 77 -186 160q-109 147 -109 369q0 277 173 461q177 187 452 187q274 0 451 -188q172 -184 172 -460q0 -183 -69 -307.5t-224 -221.5h293v-221h-548v196q121 68 183 150q113 149 113 375q0 181 -90 304q-112 152 -280 152q-175 0 -280 -145
q-94 -129 -94 -311q0 -358 299 -525v-196h-551z" />
    <glyph glyph-name="Omega" unicode="&#x2126;" horiz-adv-x="1365" 
d="M59 0v221h295q-124 77 -186 160q-109 147 -109 369q0 277 173 461q177 187 452 187q274 0 451 -188q172 -184 172 -460q0 -183 -69 -307.5t-224 -221.5h293v-221h-548v196q121 68 183 150q113 149 113 375q0 181 -90 304q-112 152 -280 152q-175 0 -280 -145
q-94 -129 -94 -311q0 -358 299 -525v-196h-551z" />
    <glyph glyph-name="pi" unicode="&#x3c0;" horiz-adv-x="1334" 
d="M230 0v762h-156v221h1186v-221h-154v-762h-246v762h-384v-762h-246z" />
    <glyph glyph-name="endash" unicode="&#x2013;" horiz-adv-x="1947" 
d="M1627 668v-349h-1307v349h1307z" />
    <glyph glyph-name="emdash" unicode="&#x2014;" horiz-adv-x="2125" 
d="M2125 668v-349h-2125v349h2125z" />
    <glyph glyph-name="quoteleft" unicode="&#x2018;" horiz-adv-x="637" 
d="M507 999v-366h-396v349q0 113 5 152q11 86 53 140q71 91 284 91h113v-209q-94 -1 -128 -25q-41 -29 -41 -118v-14h110z" />
    <glyph glyph-name="quoteright" unicode="&#x2019;" horiz-adv-x="646" 
d="M129 999v366h396v-349q0 -114 -5 -153q-11 -86 -53 -140q-70 -90 -284 -90h-113v209q95 0 128 24q41 30 41 119v14h-110z" />
    <glyph glyph-name="quotesinglbase" unicode="&#x201a;" horiz-adv-x="646" 
d="M129 0v366h396v-349q0 -114 -5 -153q-11 -86 -53 -140q-70 -90 -284 -90h-113v209q95 0 128 24q41 30 41 119v14h-110z" />
    <glyph glyph-name="quotedblleft" unicode="&#x201c;" horiz-adv-x="1195" 
d="M1066 999v-366h-396v349q0 113 5 152q11 86 53 140q71 91 284 91h113v-209q-94 -1 -128 -25q-41 -29 -41 -118v-14h110zM507 999v-366h-396v349q0 113 5 152q11 86 53 140q71 91 284 91h113v-209q-94 -1 -128 -25q-41 -29 -41 -118v-14h110z" />
    <glyph glyph-name="quotedblright" unicode="&#x201d;" horiz-adv-x="1205" 
d="M129 999v366h396v-349q0 -114 -5 -153q-11 -86 -53 -140q-70 -90 -284 -90h-113v209q95 0 128 24q41 30 41 119v14h-110zM688 999v366h396v-349q0 -114 -5 -153q-11 -86 -53 -140q-70 -90 -284 -90h-113v209q95 0 128 24q41 30 41 119v14h-110z" />
    <glyph glyph-name="quotedblbase" unicode="&#x201e;" horiz-adv-x="1205" 
d="M129 0v366h396v-349q0 -114 -5 -153q-11 -86 -53 -140q-70 -90 -284 -90h-113v209q95 0 128 24q41 30 41 119v14h-110zM688 0v366h396v-349q0 -114 -5 -153q-11 -86 -53 -140q-70 -90 -284 -90h-113v209q95 0 128 24q41 30 41 119v14h-110z" />
    <glyph glyph-name="dagger" unicode="&#x2020;" horiz-adv-x="1947" 
d="M1159 1365v-403h596v-261h-596v-1144h-370v1144h-597v261h597v403h370z" />
    <glyph glyph-name="daggerdbl" unicode="&#x2021;" horiz-adv-x="1947" 
d="M1159 1365v-403h596v-261h-596v-459h596v-261h-596v-424h-370v424h-597v261h597v459h-597v261h597v403h370z" />
    <glyph glyph-name="bullet" unicode="&#x2022;" horiz-adv-x="1365" 
d="M689 978q117 0 198.5 -83.5t81.5 -200.5q0 -119 -82.5 -201.5t-201.5 -82.5q-118 0 -201 82.5t-83 200.5q0 121 83.5 203t204.5 82z" />
    <glyph glyph-name="ellipsis" unicode="&#x2026;" horiz-adv-x="2122" 
d="M557 381v-381h-407v381h407zM1264 381v-381h-407v381h407zM1972 381v-381h-407v381h407z" />
    <glyph glyph-name="perthousand" unicode="&#x2030;" horiz-adv-x="3221" 
d="M533 1368q262 0 336 -47q59 -38 77 -132q9 -48 9 -160q0 -114 -7 -160q-15 -100 -75 -143q-51 -36 -159 -45q-25 -2 -176 -2l-190 -1q-118 5 -175 36q-74 42 -91 146q-6 36 -6 172q0 112 9 158q19 97 92 137q54 29 167 38q40 3 189 3zM505 1200q-144 0 -177 -23
q-37 -26 -37 -157q0 -125 51 -152q28 -15 174 -15q160 0 195 30q18 16 22 34q7 32 7 99q0 92 -6 122q-9 48 -76 57q-36 5 -153 5zM1586 1365h188l-1136 -1365h-188zM1726 686q134 0 172 -3q106 -8 158 -41q65 -40 83 -135q9 -48 9 -160q0 -114 -7 -160q-15 -100 -75 -143
q-51 -36 -159 -45q-25 -2 -176 -2l-190 -1q-118 5 -175 36q-74 42 -91 146q-6 36 -6 172q0 112 9 158q19 97 92 137q54 29 167 38q40 3 189 3zM1698 518q-144 0 -177 -23q-37 -26 -37 -157q0 -124 51 -152q28 -15 174 -15q159 0 195 30q18 15 22 34q7 33 7 99q0 92 -6 122
q-9 48 -76 57q-36 5 -153 5zM2723 686q134 0 172 -3q106 -8 158 -41q65 -40 83 -135q9 -48 9 -160q0 -114 -7 -160q-15 -100 -75 -143q-51 -36 -159 -45q-25 -2 -176 -2l-190 -1q-118 5 -175 36q-74 42 -91 146q-6 36 -6 172q0 112 9 158q19 97 92 137q54 29 167 38
q40 3 189 3zM2695 518q-144 0 -177 -23q-37 -26 -37 -157q0 -125 51 -152q28 -15 174 -15q159 0 195 30q18 15 22 34q7 33 7 99q0 92 -6 122q-9 48 -76 57q-36 5 -153 5z" />
    <glyph glyph-name="guilsinglleft" unicode="&#x2039;" horiz-adv-x="739" 
d="M616 861l-213 -362l213 -355l-252 -139l-296 494l296 506z" />
    <glyph glyph-name="guilsinglright" unicode="&#x203a;" horiz-adv-x="739" 
d="M123 861l252 144l296 -506l-296 -494l-252 139l213 355z" />
    <glyph glyph-name="fraction" unicode="&#x2044;" horiz-adv-x="462" 
d="M696 1365h206l-1135 -1365h-207z" />
    <glyph glyph-name="franc" unicode="&#x20a3;" horiz-adv-x="2424" 
d="M177 0v1365h1442v-302h-1034v-283h597v-302h-597v-478h-408zM1264 780h355v-190q34 106 96 146q98 64 287 64q264 0 336 -126q31 -54 39 -147q4 -47 5 -161h-330q-1 10 -2 23q-4 88 -54 121q-41 27 -136 27q-155 0 -212 -91q-29 -46 -29 -186v-260h-355v780z" />
    <glyph glyph-name="trademark" unicode="&#x2122;" horiz-adv-x="2737" 
d="M434 587v576h-367v202h998v-202h-366v-576h-265zM1191 587v778h409l296 -501l295 501h405v-778h-258l12 572l-354 -572h-208l-348 572l6 -572h-255z" />
    <glyph glyph-name="partialdiff" unicode="&#x2202;" 
d="M136 1149l31 213q194 -22 334 -76q182 -70 307 -221q177 -213 177 -524q0 -372 -256 -507q-100 -53 -221 -53q-142 0 -259 76q-78 51 -130 128q-82 121 -82 264q0 185 120 311t304 126q155 0 259 -103q-150 327 -584 366zM513 706q-85 0 -147 -60q-79 -77 -79 -206
q0 -126 77 -210q60 -65 146 -65q106 0 168 88q56 78 56 188q0 133 -81 209q-60 56 -140 56z" />
    <glyph glyph-name="product" unicode="&#x220f;" horiz-adv-x="1490" 
d="M81 1536h1328v-229h-170v-1590h170v-229h-580v229h164v1590h-497v-1590h163v-229h-578v229h169v1590h-169v229z" />
    <glyph glyph-name="summation" unicode="&#x2211;" horiz-adv-x="1365" 
d="M1262 1536v-507h-220l-26 277h-694l512 -759l-512 -830h713l15 275h231v-504h-1236v254l501 805l-501 734v255h1217z" />
    <glyph glyph-name="minus" unicode="&#x2212;" horiz-adv-x="1884" 
d="M1583 825v-246h-1283v246h1283z" />
    <glyph glyph-name="periodcentered" unicode="&#x2219;" horiz-adv-x="707" 
d="M557 669v-381h-407v381h407z" />
    <glyph glyph-name="radical" unicode="&#x221a;" horiz-adv-x="1365" 
d="M1365 1702v-229h-371l-356 -1473h-324l-125 565h-189v229h392l43 -194q24 -109 33 -299h20q28 298 104 616l188 785h585z" />
    <glyph glyph-name="infinity" unicode="&#x221e;" horiz-adv-x="1365" 
d="M689 537q-147 -171 -324 -171q-156 0 -252 109q-78 88 -78 222q0 159 110 251q93 78 220 78q171 0 313 -168q135 168 322 168q169 0 264 -120q67 -84 67 -209q0 -145 -91.5 -238t-236.5 -93q-177 0 -314 171zM804 697q82 -123 164 -123q51 0 86 35.5t35 86.5t-35.5 86.5
t-86.5 35.5q-66 0 -124 -68q-3 -4 -23 -31zM562 696q-80 122 -163 122q-51 0 -86.5 -35.5t-35.5 -86.5t36 -86.5t87 -35.5q65 0 123 69q39 46 39 53z" />
    <glyph glyph-name="integral" unicode="&#x222b;" 
d="M115 -491l46 219q67 -19 111 -19q104 0 115 111q2 20 2 156v1024q0 251 21 327q58 209 320 209q70 0 179 -21l-46 -219q-66 19 -110 19q-106 0 -116 -112q-2 -22 -2 -280l-1 -1093q-7 -124 -42 -188q-84 -153 -298 -153q-90 0 -179 20z" />
    <glyph glyph-name="approxequal" unicode="&#x2248;" horiz-adv-x="1952" 
d="M615 712l-136 89q56 135 110 193q77 83 196 83q67 0 214 -56q132 -50 181 -50q57 0 93 30q25 21 60 80l141 -81q-74 -154 -145 -206q-81 -60 -176 -60q-55 0 -300 89q-47 17 -84 17q-58 0 -96 -38q-25 -25 -58 -90zM615 309l-136 89q57 135 110 193q77 84 196 84
q69 0 214 -56q132 -51 182 -51q87 0 152 110l141 -81q-74 -154 -145 -206q-81 -60 -177 -60q-60 0 -197.5 53.5t-185.5 53.5q-58 0 -96 -39q-23 -24 -58 -90z" />
    <glyph glyph-name="approxequal" unicode="&#x22f2;" horiz-adv-x="1952" 
d="M615 712l-136 89q56 135 110 193q77 83 196 83q67 0 214 -56q132 -50 181 -50q57 0 93 30q25 21 60 80l141 -81q-74 -154 -145 -206q-81 -60 -176 -60q-55 0 -300 89q-47 17 -84 17q-58 0 -96 -38q-25 -25 -58 -90zM615 309l-136 89q57 135 110 193q77 84 196 84
q69 0 214 -56q132 -51 182 -51q87 0 152 110l141 -81q-74 -154 -145 -206q-81 -60 -177 -60q-60 0 -197.5 53.5t-185.5 53.5q-58 0 -96 -39q-23 -24 -58 -90z" />
    <glyph glyph-name="notequal" unicode="&#x2260;" horiz-adv-x="1952" 
d="M1340 1030h278v-246h-437l-107 -163h544v-246h-703l-166 -256l-206 134l79 122h-287v246h446l107 163h-553v246h712l157 242l206 -134z" />
    <glyph glyph-name="lessequal" unicode="&#x2264;" horiz-adv-x="1952" 
d="M1419 1349v-232l-627 -289l627 -287v-232l-887 412v207zM1419 250v-229h-887v229h887z" />
    <glyph glyph-name="greaterequal" unicode="&#x2265;" horiz-adv-x="1952" 
d="M532 309v232l627 288l-627 288v232l887 -421v-207zM532 21v229h887v-229h-887z" />
    <glyph glyph-name="lozenge" unicode="&#x25ca;" horiz-adv-x="1365" 
d="M683 1419l532 -736l-532 -736l-532 736zM683 1237l-404 -554l404 -555l403 555z" />
    <glyph glyph-name="apple" unicode="&#xf000;" horiz-adv-x="1365" 
d="M983 1416q-2 -144 -80 -242q-84 -106 -224 -113q5 146 82 239q80 98 222 116zM1276 935q-165 -126 -165 -285q0 -216 204 -305q-64 -158 -140 -257q-110 -143 -204 -143q-49 0 -132 38q-50 23 -106 23q-80 0 -147 -28q-84 -35 -125 -35q-111 0 -223 167
q-172 256 -172 524q0 202 122 335q99 108 259 108q64 0 173 -41q56 -21 86 -21q36 0 129.5 33t144.5 33q190 0 296 -146z" />
    <glyph glyph-name="fi" unicode="&#xf001;" horiz-adv-x="1674" 
d="M1172 0v956h352v-956h-352zM1172 1109v256h352v-256h-352zM286 0v716h-190v240h190v31q0 157 38 233q56 112 196 147q80 20 257 20q76 0 194 -8v-231q-94 3 -137 3q-105 0 -146 -30q-50 -36 -50 -137v-28h354v-240h-354v-716h-352z" />
    <glyph glyph-name="fl" unicode="&#xf002;" horiz-adv-x="1674" 
d="M1172 0v1365h352v-1365h-352zM286 0v716h-190v240h190v31q0 157 38 233q56 112 196 147q80 20 257 20q76 0 194 -8v-231q-94 3 -137 3q-105 0 -146 -30q-50 -36 -50 -137v-28h354v-240h-354v-716h-352z" />
    <glyph glyph-name="glyph4" horiz-adv-x="512" 
 />
    <glyph glyph-name="glyph5" horiz-adv-x="512" 
 />
    <glyph glyph-name="glyph233" horiz-adv-x="512" 
 />
    <glyph glyph-name="glyph234" horiz-adv-x="512" 
 />
    <glyph glyph-name="glyph226" horiz-adv-x="512" 
 />
    <glyph glyph-name="glyph227" horiz-adv-x="512" 
 />
    <glyph glyph-name="glyph228" horiz-adv-x="512" 
 />
    <glyph glyph-name="glyph229" horiz-adv-x="512" 
 />
    <glyph glyph-name="glyph235" horiz-adv-x="512" 
 />
    <glyph glyph-name="glyph310" horiz-adv-x="512" 
 />
    <glyph glyph-name="glyph236" horiz-adv-x="512" 
 />
    <glyph glyph-name="glyph237" horiz-adv-x="512" 
 />
    <glyph glyph-name="glyph313" horiz-adv-x="512" 
 />
    <glyph glyph-name="glyph230" horiz-adv-x="512" 
 />
    <glyph glyph-name="glyph231" horiz-adv-x="512" 
 />
    <glyph glyph-name="glyph242" horiz-adv-x="512" 
 />
    <glyph glyph-name="glyph243" horiz-adv-x="512" 
 />
    <glyph glyph-name="glyph239" horiz-adv-x="512" 
 />
    <glyph glyph-name="glyph244" horiz-adv-x="512" 
 />
    <glyph glyph-name="glyph241" horiz-adv-x="512" 
 />
    <glyph glyph-name="glyph240" horiz-adv-x="512" 
 />
    <glyph glyph-name="glyph232" horiz-adv-x="512" 
 />
    <glyph glyph-name="glyph238" horiz-adv-x="512" 
 />
    <glyph glyph-name="glyph172" horiz-adv-x="1947" 
 />
    <glyph glyph-name="glyph245" horiz-adv-x="512" 
 />
    <glyph glyph-name="glyph246" horiz-adv-x="512" 
 />
    <glyph glyph-name="glyph247" horiz-adv-x="512" 
 />
    <glyph glyph-name="glyph248" horiz-adv-x="512" 
 />
    <glyph glyph-name="glyph249" horiz-adv-x="512" 
 />
    <glyph glyph-name="glyph250" horiz-adv-x="512" 
 />
    <glyph glyph-name="glyph251" horiz-adv-x="512" 
 />
    <glyph glyph-name="glyph252" horiz-adv-x="512" 
 />
    <glyph glyph-name="glyph253" horiz-adv-x="512" 
 />
    <glyph glyph-name="glyph254" horiz-adv-x="512" 
 />
    <glyph glyph-name="glyph255" horiz-adv-x="512" 
 />
    <glyph glyph-name="glyph256" horiz-adv-x="512" 
 />
    <glyph glyph-name="glyph257" horiz-adv-x="512" 
 />
    <glyph glyph-name="glyph359" 
d="M817 1811l183 -71q-96 -248 -282 -248q-68 0 -204 52.5t-192 52.5q-77 0 -115 -98l-183 71q34 80 72 133q82 114 208 114q87 0 322 -86q46 -17 87 -17q72 0 104 97z" />
    <glyph glyph-name="glyph360" 
d="M522 1862q296 0 296 -189q0 -207 -318 -207q-117 0 -194 40q-99 51 -99 157q0 199 315 199zM511 1742q-137 0 -137 -82q0 -74 132 -74q145 0 145 78t-140 78z" />
    <glyph glyph-name="glyph361" 
d="M791 1379l252 -128l-224 -326l-171 74z" />
    <glyph glyph-name="glyph362" 
d="M461 -75l245 -135l-224 -278l-164 74z" />
    <glyph glyph-name="glyph363" 
d="M512 1472l-489 247l72 130l417 -115l415 115l73 -130z" />
    <glyph glyph-name="glyph364" 
d="M223 1860l548 -239l-62 -149l-571 131z" />
    <glyph glyph-name="glyph365" 
d="M802 1860l85 -257l-571 -131l-62 149z" />
    <glyph glyph-name="glyph366" 
d="M471 -75l225 -128l-231 -272l-137 75z" />
    <glyph glyph-name="glyph367" 
d="M811 1379l232 -122l-238 -305l-137 75z" />
    <glyph glyph-name="glyph368" 
d="M699 1760v-246h-375v246h375z" />
    <glyph glyph-name="glyph369" 
d="M464 1346v-213h-257v213h257zM816 1346v-213h-257v213h257z" />
    <glyph glyph-name="glyph370" 
d="M983 1830q-9 -104 -86 -187q-146 -157 -385 -157q-240 0 -385 157q-75 81 -86 187h226q23 -57 66 -84q83 -53 179 -53t179 53q43 27 66 84h226z" />
    <glyph glyph-name="glyph371" 
d="M978 1753v-221h-932v221h932z" />
    <glyph glyph-name="glyph372" 
d="M458 1867l146 -189l-366 -213l-103 122zM922 1867l146 -189l-366 -213l-103 122z" />
    <glyph glyph-name="glyph373" 
d="M461 -75l245 -135l-224 -278l-164 74z" />
    <glyph glyph-name="glyph374" 
d="M413 1757v-239h-357v239h357zM969 1757v-239h-357v239h357z" />
    <glyph glyph-name="glyph375" 
d="M512 1849l488 -247l-73 -130l-415 114l-417 -114l-72 130z" />
    <glyph glyph-name="glyph376" 
d="M552 1089l-224 128l231 271l137 -74z" />
    <glyph glyph-name="glyph377" 
d="M464 1757v-239h-316v239h316zM875 1757v-239h-316v239h316z" />
    <glyph glyph-name="glyph378" horiz-adv-x="512" 
 />
    </font>
</defs>
</svg>
